<!-- Updated grocery icons for kid‑friendly grocery list -->
<svg xmlns="http://www.w3.org/2000/svg"
     xmlns:xlink="http://www.w3.org/1999/xlink"
     style="display:none">
  <defs>
    <!-- Consistent stroke style for all icons -->
    <style>
      .s {
        stroke:#1a1a1a;
        stroke-width:1.5;
        stroke-linecap:round;
        stroke-linejoin:round;
      }
    </style>

    <!--
      The following symbols provide simple, colourful depictions of common
      grocery items.  Each icon is drawn with a light outline and bright
      fills so that children can easily recognise the item it represents.
      Where appropriate multiple shapes are combined to build up the
      recognisable silhouette of the food or container.  All viewBox
      values are 24×24 (except the banana, which keeps its original
      dimensions) so the icons scale cleanly at any size.
    -->

    <!-- ========== VEGETABLES ========== -->

    <!-- Broccoli: a cluster of florets atop a short stalk -->
  <symbol id="i-broccoli" viewBox="0 0 128 128" aria-label="broccoli">
  <path d="M21.74 24.77 8.57 41.04s-3.95 4.95-2.93 9.84c1.15 5.46 4.05 5.79 4.05 5.79S9.5 60.91 12 64.52s3.69 5.32 12.77 8.07 25.46 5.84 25.46 5.84l4.22 16.38s1.13 4.05 6.16 6.16 8.96 1.56 8.96 1.56 2.08 5.75 8.99 7.35c5.98 1.39 10.75-1.62 10.75-1.62s5.03 3.08 11.51 1.62c7.52-1.69 9.24-6.32 9.24-6.32s6.16-.65 10.21-6.49 1.13-12.48 1.13-12.48 3.59-5.32 2.59-11.35c-.9-5.46-3.07-7.32-3.07-7.32l-12.98-9.06s5.51-2.27 7.46-12-2.92-14.59-2.92-14.59 1.91-5.49-1.3-10.38c-3.08-4.7-7.46-2.43-9.57-4.54-2.6-2.6-17.35-4.22-17.35-4.22l-10.61-.49-45.51-.49z" fill="#2f7c31"/>
  <path d="M28 8.45s5.09-5.58 11.92-5.09 8.07 4.61 8.07 4.61 4.19-.69 6.82.48c5.38 2.4 4.81 5.19 6.44 5s1.63-7.11 9.23-9.52 11.73 1.25 13.36 1.15 3.65-2.03 9.42-.19c5.19 1.66 6.3 5.1 6.54 6.15.28 1.27.28 2.69 1.82 4.32s-.11 7.54-2.32 9.94-6.52 2.65-6.52 2.65 1.01 8.3-5.89 12.86c-4.85 3.2-10.07 1.94-10.07 1.94s-5.57 4.82-11.82 2.8c-6.25-2.02-6.92-4.61-3.46-7.5 3.46-2.88 5-8.46.87-9.52-4.13-1.06-8.36.96-9.8 5.48-1.44 4.52-1.54 8.46-6.25 11.82-4.71 3.36-8.17 2.31-12.88 3.56-4.71 1.25-7.88 5.29-11.82 5.38-3.94.1-7.02-2.79-9.04-2.5-2.02.29-6.15 1.25-6.15 1.25s-1.83-3.46-.67-7.69 2.78-4.8 2.78-4.8-9.37-9.06-.76-22.88C15.6 5.66 28 8.45 28 8.45z" fill="#709921"/>
  <path d="M79.71 73.23s3.65-1.54 6.06-5.67c2.4-4.13 3.65-7.21 7.5-9.23 3.84-2.02 8.17-1.83 13.75-1.54 5.58.29 6.99 1.99 8.36 3.36 2.69 2.69 5.58 5.77 5.58 5.77s-4.71.38-7.21 4.23-4.04 9.13-4.04 9.13-3.36 1.25-6.92 3.17-11.44 7.02-16.63 5.67c-5.19-1.35-7.88-7.31-7.88-7.98-.01-.66 1.43-6.91 1.43-6.91z" fill="#709921"/>
  <path d="M35.34 81.83c-.24.72-25.28 28.89-25.28 28.89s3.01 4.57 5.66 6.74 6.95 5.41 9.68 6.15c2.96.8 5.24 1.68 7.89-1.81 2.65-3.49 4.69-8.06 11.92-15.77s12.4-12.4 18.17-15.17 14.08-4.69 16.25-4.93c2.17-.24 4.93-.48 4.93-.48s1.63-3.29 1.08-5.9c-.61-2.91-4.69-4.21-4.69-4.21l-20.7 3.01 2.45-.82s-.97-1.43.32-3.28c1.12-1.61 6.26-7.83 7.95-10.12 1.69-2.29 5.12-6.73 5.05-7.45-.12-1.32-3.25-3.01-4.21-3.61-.96-.6-3.01-1.44-3.01-1.44l-13.28 1.46-1.2-1.08s-1.44-.07-2.29-2.29c-.6-1.56-.84-6.26-1.32-10.35-.3-2.56-.48-5.54-.48-5.54s-3.49-1.56-5.78-1.32-4.93 2.77-4.93 2.77l4.69 25.04z" fill="#9fb525"/>
  <path d="M26.91 57.51c-.36.96.24 5.3.24 11.07s-.33 11.12-3.13 14.56c-3.61 4.45-9.75 10.71-14.44 14.92-2.03 1.82-3.37 2.53-3.49 3.01s.87 4.86 1.81 6.74c1.7 3.4 4.82 6.49 4.82 6.49s12.51-14.07 17.81-19.49c5.3-5.42 8.18-9.03 9.39-7.82 1.2 1.2-2.79 5.89-5.66 9.15-4.33 4.93-16.47 22.92-16.47 22.92s.67.7 2.03 1.63c1.2.83 2.14 1.26 2.14 1.26s6.4-10.41 15.31-19.8 13.96-13.72 20.1-15.77 28.28-6.86 28.28-6.86-.96-3.37-1.56-4.81-1.93-3.13-1.93-3.13-11.07 2.89-13 3.49c-1.93.6-12.88 1.93-13.36.72-.48-1.2 7.34-10.95 9.63-13.96 2.29-3.01 6.43-8.79 6.43-8.79s-2.45-1.68-5.46-2.4-4.09-.12-4.09-.12-7.34 9.87-9.51 12.76c-2.17 2.89-6.38 9.15-10.23 10.23-3.85 1.08-4.81.12-5.3-2.77-.48-2.89-1.69-16.73-1.69-16.73s-3.85.24-5.3.96-3.01 1.58-3.37 2.54z" fill="#b7d118"/>
  <path d="M102.96 75.13s2.24-4.05 4.17-2.36c1.94 1.69-1.75 7.02-2.54 7.2-.79.18-6.95-1.87-6.05-4.17.92-2.3 4.42-.67 4.42-.67zM44.78 34.49c2.3-.08 7.13-4.8 5.09-7.25-1.65-1.98-5.09 1.86-5.09 1.86s-3.64-3.75-5.08-1.94c-2.05 2.62 3.39 7.39 5.08 7.33zM31.96 39.21s2-4.11 4.29-2.36c2.3 1.75-1.69 7.68-2.9 8.04-1.21.36-7.71-3.36-5.99-5.99 1.4-2.11 4.6.31 4.6.31zM14.36 35.46c.72.12 5.87-2.78 4.41-5.32s-4.41.67-4.41.67-2.79-2.47-3.99-.97c-1.93 2.42 2.91 5.44 3.99 5.62zM15.27 43.81s1.94-3.99 3.99-2.48c2.06 1.51-1.51 7.56-2.06 7.8-.54.24-7.81-1.81-6.23-4.72 1.1-1.99 4.3-.6 4.3-.6zM79.21 39.31c1.59-.69 4.25-6.07 1.76-7.16-2.01-.88-3.06 2.4-3.06 2.4s-2.23-1.96-3.76-.35c-2.35 2.47 4.1 5.53 5.06 5.11zM90.51 18.38s.13-2.34 1.93-2.22c1.98.14 1.72 5.02.21 5.94-1.51.92-6.49-1.72-5.36-3.56.72-1.17 3.35-.37 3.22-.16z" fill="#2f7c31"/>
</symbol>



    <!-- Carrot: an orange tapering root with leafy greens -->
  <symbol id="i-carrot" viewBox="0 0 128 128" aria-label="carrot">
  <path d="M55.46 70.67L4.01 110.71s-1.71 2.41-.27 4.5c1.45 2.09 6.33 1.55 14.21-1.99 7.14-3.21 25.54-12.74 34.49-18.7 6.57-4.38 16.59-10.13 22.77-15.92 2.86-2.67 4.47-4.72 5.39-7.91 2.82-9.79-2.47-13.85-2.47-13.85L55.46 70.67zM59.45 63.7c-1.07.94-.99 2.57.25 3.97 1.51 1.7 2.96 3.15 4.23 4.23 1.26 1.07 2.9.57 3.47-.19.78-1.04.63-2.4-.5-3.6-.96-1.01-3.09-3.41-4.35-4.35-.83-.61-2.09-.94-3.1-.06zM41.66 71.72c-1.55 1.35-.69 3.47.44 5.11 1.14 1.64 2.96 3.78 5.05 2.52s.25-4.73-.69-6.12c-.95-1.39-2.85-3.22-4.8-1.51zM32.1 88.79c-1.39 1.52-.37 3.27 1.26 4.48 1.7 1.26 3.85 2.02 4.92.63 1.07-1.39-.32-3.41-1.64-4.35-1.32-.95-3.21-2.21-4.54-.76zM14.85 99.53c-1.67 1.27-.5 3.66.32 4.67s2.33 2.4 3.78 1.14c1.41-1.23.6-3.13-.19-4.48-1.07-1.83-2.84-2.15-3.91-1.33z" fill="#ed6c31"/>
  <path d="M7.09 112.46c5.65-.99 20.94-10.66 28.73-15.13s34.9-20.88 38.54-27.43c2.03-3.66 3.01-10.39-.1-14.65s-9.03-7.58-17.14-3.64c-7.48 3.64-22.23 23.28-29.61 31.48C17.5 94.22 8.59 104.68 4.98 109.23c-1.23 1.54-1.4 2.34-1.4 2.34s1.33 1.28 3.51.89z" fill="#ff8d02"/>
  <path d="M80.8 42.38c-.26 1.76-2.01 3.37-5.09 6.13-4.05 3.64-5.71 3.43-6.44 5.3-.45 1.17.47 3.67 2.91 6.34 2.18 2.39 4.17 3.16 4.99 3.01 1.99-.35 3.12-3.01 7.27-6.44 3.08-2.54 4.16-3.43 5.71-3.32 1.56.1 2.89 1.57 4.57 3.32 2.49 2.6 7.36 4.94 12.41 3.25 6.01-2.02 6.25-7.6 6.87-8.22.62-.62 5.23-.53 7.62-3.34 2.39-2.8 3.08-9.59 2.04-11.46-1.04-1.87-49.1-15.24-49.1-15.24s-2.04 5.89-.52 10.18c2.4 6.75 7.24 7.2 6.76 10.49z" fill="#2f7c31"/>
  <path d="M47.04 68.35c2.14 1.94 4.36.42 5.82-1.04 1.31-1.31 4.36-4.26 5.71-5.19 1.35-.93 4.05-3.01 5.82-4.36 1.77-1.35 1.57-5.88-2.39-5.19-2.39.42-5.09 2.6-8.1 5.09-2.38 1.97-5.19 4.99-6.34 6.54-1.14 1.55-1.66 3.11-.52 4.15z" fill="#ffa726"/>
  <path d="M37.97 78.24c-1.47-1.47-2.88-.47-4.88 1.71s-2.24 3.69-1.06 4.82c1.65 1.59 3.41-.41 4.82-2 1.41-1.59 2.77-2.88 1.12-4.53z" fill="#ffa726"/>
  <path d="M88.39 16.25c.76-.13 8.16-8.86 19.38-2.95 10.83 5.7 5.93 14.89 6.33 15.47s5.17.4 7.83 4.39c2.85 4.28 2 6.65 2 6.65s-1.03 4-5.84 4.95c-3.04.6-6.42-.77-7.37-.29s-.72 4.91-6.23 6.62c-3.5 1.09-10.55-.35-15.15-4.72-4.67-4.43-3.08-9.11-5.95-11.37-3.99-3.14-12.21-7.58-8.24-14.69 4.56-8.17 12.49-3.93 13.24-4.06z" fill="#709921"/>
</symbol>


    <!-- Tomato: bright red fruit with a green crown -->
  <symbol id="i-tomato" viewBox="0 0 64 64">
  <path d="M62 31.6C62.8 47 48.9 60 32.1 60S.4 46.2 2.1 30.9C4.5 9.4 20.4 8 32.1 8C39.2 8 60.2 1.8 62 31.6z" fill="#ef4d3c"/>
  <path d="M11 27c6.2-9.6 16.8-6.8 19.6-10.4c0 6.9 5 3.5 7.5 6.6c3.2 4 4.4 11.1 8.2 12.5c-3.7-7.9 2.3-7.6-6.1-18.2c4.5 2.8 6.8 0 12.9 2.5c-5.3-8.4-13.6-6-13.6-6s5.2-4.8 9.6-2.3c-4.6-6.8-17.9 1.8-17.9 1.8s-5.5-9.4-17.3.5c6.9-2.8 14.5 0 14.5 0S15.9 10.9 11 27" fill="#8cc63e"/>
  <g fill="#64892f">
    <path d="M11 27s7.3-13.5 19.9-12.3C19.8 9.6 11 20.4 11 27z"/>
    <path d="M13.9 14s9.2-6.9 17.3 0c-2.4-8.4-14.7-4.5-17.3 0"/>
    <path d="M33.2 14.9c12.2 5.6 8.1 12 13.1 21c-3.4-7.5 5-21-13.1-21"/>
    <path d="M28.4 14s2.8-4.2 3.8-9.4c.1-.7 3.1-.6 3 .1c-1 6.7 1.7 10.4 1.7 10.4s-2.1.7-4.7.7c-2.6.1-3.8-1.8-3.8-1.8"/>
  </g>
  <ellipse cx="33.7" cy="4.6" rx="1.5" ry=".6" fill="#8cc63e"/>
</symbol>


    <!-- Cucumber: long green cucumber with pale seeds -->
    <symbol id="i-cucumber" viewBox="0 0 128 128" aria-label="cucumber">
  <path d="M75.57 49.03L4.53 103.66s2.03 7.95 9.47 12.35c6.19 3.66 12.85 3.72 21.31.85c8.46-2.88 13.36-7.1 13.36-7.1s3.39 1.08 5.92-.85c2.32-1.76 2.01-4.55 2.03-4.57c.81-.76 13.56-10.48 19.48-16.06c5.92-5.58 23.65-23.86 23.65-23.86s3.31.3 5.25-1.91c1.81-2.06.84-4.01.84-4.01s18.13-15.73 18.44-28.41c.34-14.04-10.82-18.77-12.69-19.28c-1.86-.51-36.02 38.22-36.02 38.22z" fill="#2e7e30"/>
  <path d="M73.03 29.58s-4.57 5.07-5.92 6.77c-1.35 1.69-5.07 5.58-5.07 5.58s-2.74-1.19-5.07 1.35c-2.07 2.25-1.52 5.41-1.52 5.41s-13.2 11.67-24.7 19.62c-11.5 7.95-23.8 16.07-26.38 25.71c-1.44 5.38.17 9.64.17 9.64s2.88.68 5.41 2.54s4.19 3.96 4.19 3.96s10.02.94 18.82-3.62s32.8-22.84 38.72-28.25c5.92-5.41 28.45-27.96 34-35.01c5.95-7.56 10.49-17.25 9.13-24.86c-1.35-7.61-3.21-7.61-3.21-7.61s-9.98-4.06-18.94.51C84.26 15.6 79.3 22.31 79.3 22.31s-2.85-1-4.85 1.3c-2.37 2.71-1.42 5.97-1.42 5.97z" fill="#559833"/>
  <path d="M109.38 26.66c-1.43-.84-3.7.12-4.68 1.97s-.49 4.07 1.11 4.81c1.6.74 3.45.12 4.68-1.73c.88-1.33.98-3.82-1.11-5.05z" fill="#2e7e30"/>
  <path d="M66.98 73.73c-1.99-1.46-4.31-.37-5.55 1.6c-1.23 1.97-1.23 3.82.25 5.18c1.48 1.36 3.94.62 5.42-1.48c1.31-1.85 1.73-3.94-.12-5.3z" fill="#2e7e30"/>
  <path d="M66.73 65.85c.74 1.88 14.05-10.11 21.57-18.98s20.27-24.36 16.88-25.88c-3.57-1.6-11.4 11.32-17.38 18.98c-8.74 11.21-22.18 23.04-21.07 25.88z" fill="#2e7e30"/>
  <path d="M57.01 74.3c.44 2.61-10.57 12.33-15.5 16.03c-2.79 2.09-18.94 10.9-20.12 8.01c-.78-1.92 11.14-7.55 15.77-10.71c5.23-3.57 9.23-6.97 12.37-9.49c1.78-1.45 7.16-5.72 7.48-3.84z" fill="#2e7e30"/>
  <path d="M105.78 14.03c.05 1.31-1.92 2.44-4.88 3.22c-2.96.78-8.71 6.36-12.46 10.37c-3.75 4.01-12.8 15.5-14.28 17.42s-9.41 8.97-11.58 11.15s-15.07 12.28-18.46 14.89c-3.4 2.61-16.3 11.22-19.35 13.39c-2.81 2.01-7.36 5.47-9.74 9.78c-1.86 3.34-3.22 7.14-4.44 6.79s-1.22-5.92 1.48-10.71c2.7-4.79 8.71-8.54 11.93-10.71s18.29-12.11 18.29-12.11S52.74 58.8 55.18 56.8c2.44-2 13.67-11.85 17.07-16.29s10.63-13.76 15.07-18.47c4.44-4.7 9.49-7.66 12.11-8.45c2.61-.78 6.27-1.65 6.35.44z" fill="#2e7e30"/>
  <path d="M20.25 91.72c.65 1.51 3.14 1.57 6.18-.17c3.05-1.74 9.23-6.1 12.63-8.54c4.01-2.87 8.19-6.18 9.49-7.49c2.09-2.09 2.7-3.82 2.18-5.05s-2.53-.87-4.44.52c-4.18 3.05-6.97 4.7-14.2 9.58c-2.9 1.96-7.49 5.23-9.23 6.62c-1.74 1.4-3.39 2.7-2.61 4.53z" fill="#7fba42"/>
  <path d="M90.8 16.55c.65 1.3 2.53.61 4.96-.96s2.96-2.61 2.18-3.83c-.78-1.22-3.25-.85-4.7.09c-1.48.96-3.31 2.96-2.44 4.7z" fill="#7fba42"/>
  <path d="M92.89 27.54c1.27 1.68 3.89-.56 5.71-2.36c1.72-1.69 3.8-3.38 4.58-4.3c.61-.72 1.99-3.97-1.23-3.88c-2.6.07-6.08 3.28-7.63 4.88c-1.12 1.15-2.75 3.92-1.43 5.66z" fill="#7fba42"/>
</symbol>


    <!-- Bell pepper: red bell pepper with a green stem -->
    <symbol id="i-pepper" viewBox="0 0 128 128" aria-label="pepper">
  <path d="M41.94 35.98s-8.71-2.65-15.91 5.41c-8.37 9.38-4.22 23.7-.42 34.32s5.54 14.43 7.44 23.44c1.43 6.74 3.02 18.74 15.09 22.64c8.44 2.72 17.13-3.43 17.13-3.43s3.57 3.99 11.45 4.94c8.53 1.02 17.58-1.63 20.73-9.07c1.65-3.89 3.25-16.36 4.38-24.29c1.48-10.4 6.77-21.69 8.09-30.64c1.12-7.64-.76-25.31-24.47-25.78c-8.29-.16-17.61 3.13-17.61 3.13s-7.3-3.83-12.87-4.45c-10.72-1.2-13.03 3.78-13.03 3.78z" fill="#7cb342"/>
  <path d="M96.97 35.57c-3.06-1.34-6.72-2.58-13.27-2.99c-9.28-.58-15.85 4.06-15.85 4.06s-7.3-3.83-12.87-4.45c-10.73-1.2-14.03 3.57-14.03 3.57s1.75.3 4.57 1.34c2.29.84 1.44 2.88-.45 3.07c-3.71.37-6.74 2.81-7.11 4.13c0 0 5.93-2.55 12.11-.6c8.22 2.6 10.44 8.7 10.44 8.7s4.63-5.4 15.63-7.9c10.46-2.38 17.98 2.13 17.98 2.13c-.61-2.64-2.12-3.96-3.47-5.22c-2.43-2.27-1.63-4.26.85-4.96c2.06-.58 5.47-.88 5.47-.88z" fill="#558b2f"/>
  <path d="M40.44 11.17c.09 4.78 3.73 7 5.4 7.1c3.38.19 5.89-3.91 12.19 2.14c2.56 2.46 3.56 5.96 3.48 9.44c-.03 1.15.25 5.45-1.77 6.41c-.63.3-1.05.53-3.01-.22c-2.19-.84-4.14 1.24-4.14 1.24l3.76 4.29l9.31 3.02L75 42.73l5.4-4.75s-2.51-1.95-4.69-1.17c-1.18.42-3.46-.27-3.47-1.65c-.04-2.91.08-5.68-.46-8.58c-.9-4.79-2.94-9.37-6.21-13.01c-4.69-5.22-11.4-7.93-18.21-9.03c-5.59-.89-7.01 1.91-6.92 6.63z" fill="#e0e080"/>
  <path d="M62.27 10.55C57.98 7.27 52.7 5.4 47.35 4.54c-1.8-.29-3.16-.19-4.18.22c2.08.05 6.11 1.07 12.62 5.56c4.1 2.82 12.2 12.95 5.46 23.42c-.18.87-.5 1.66-1.04 2.16c1.67-.75 4.93-3.32 5.67-10.16c.78-7.24-.94-12.02-3.61-15.19z" fill="#c4c451"/>
  <path d="M57.63 76.34c-.08 3.79.53 12.25 2.89 24.3c2.01 10.26-.03 17.71-2.7 21.04c4.32-1.17 7.44-3.31 7.44-3.31s1.11-4.12 1.18-8.33c.09-5.06-2.02-15.22-4.49-23.28c-1.74-5.66-2.26-14.2-2.34-19c0-.01-1.84 1.73-1.98 8.58z" opacity=".6" fill="#33691e"/>
  <g opacity=".75">
    <path d="M51.85 63.26c-1.06.12-2.02-.55-2.82-1.2c-2.92-2.39-4.58-4.39-7.86-6.38c-2.54-1.54-7.55-2.58-5.87-6.51c.81-1.89 3.92-2.13 6.03-1.77c7.35 1.24 10.62 5.56 12.17 10.96c.27.94.63 1.89.42 2.86c-.2.96-.98 1.89-2.02 2.04h-.05z" fill="#bbe68b"/>
  </g>
  <path d="M74.85 52.59c4.84-2.88 11.98-2.82 17.96.24c1.48.76 2.9 1.75 3.76 3.18c.65 1.08.82 2.7-.21 3.43c-.86.6-2.04.24-3.04-.08c-6-1.9-12.79-1.18-18.25 1.95c-2.06 1.18-6.48 5.55-7.78 2.49c-1.29-3.09 1.54-7.63 7.56-11.21z" opacity=".75" fill="#bbe68b"/>
</symbol>


    <!-- Mushroom: light cap with a sturdy stem -->
    <symbol id="i-mushroom" viewBox="0 0 512 512" aria-label="mushroom">
  <g fill="none" stroke="none">
    <path style="fill:#D7CCC8;" d="M330.4,292.8c2.8,17.6,8.4,47.6,19.6,92.8c22.8,91.6-28,118.4-94.4,118.4h-0.8 c-66.4,0-117.2-26.8-94.4-118.4c11.2-45.2,16.8-74.8,19.6-92.4v-0.4c11.2-1.6,22.4-2.8,32.8-4l83.2-0.4 C307.2,289.6,318.8,291.2,330.4,292.8C330.4,292.4,330.4,292.8,330.4,292.8z"/>
    <path style="fill:#BCAAA4;" d="M255.6,285.6c-11.6,0-26.4,1.2-42.4,3.2h-32.4v-0.4l160.8-23.2c-28.8-7.6-58.4-11.2-85.2-11.2 c-55.6,0-124,16.4-170,48.4v0.4c-4.8,0.4-9.6,0.4-14,0.4c-37.6,0-68-32.4-68-84.4c0-76.4,56-210.4,252-210.4s252,134.4,252,210.4 c0,52-30.4,84.4-68,84.4c-4.4,0-8.8,0-13.6-0.4l0,0c-14-9.6-29.6-18-46.8-24.8l46.8,24.8c-28.8-1.2-63.6-6-95.6-10 c-12-1.6-23.6-2.8-34.4-4C280.8,286.8,267.2,285.6,255.6,285.6z"/>
    <path style="fill:#A1887F;" d="M341.2,265.2l-160.8,23.2L86,302c46-32,114.4-48.4,170-48.4C282.8,254,312.8,257.6,341.2,265.2z"/>
    <path d="M256,508h-0.8c-42.4,0-72.4-10.8-88.8-32c-16.4-20.8-19.6-51.6-9.6-91.6c11.2-46,16.8-75.6,19.6-92c0.4-2,2.4-3.6,4.4-3.2 s3.6,2.4,3.2,4.4c-2.8,16.8-8.4,46.4-20,92.8c-9.2,37.2-6.4,66,8,84.4c14.8,19.2,42.8,28.8,82.4,29.2h0.8c39.6,0,67.6-10,82.4-29.2 c14.8-18.8,17.2-47.2,8-84.4c-8.8-36-15.6-67.2-19.6-93.2c-0.4-2,1.2-4.4,3.2-4.4c2.4-0.4,4.4,1.2,4.4,3.2 c4,25.2,10.8,57.2,19.6,92.4c10,40,6.8,70.8-9.6,91.6C328,497.2,298,508,256,508z"/>
    <path d="M72,307.2c-41.6,0-72-37.2-72-88.8C0,144.4,53.6,4,256,4s256,140.4,256,214.4c0,51.2-30.4,88.4-72,88.4c-4,0-8.8,0-14-0.4 l0,0c-26.4-1.2-58-5.2-88-9.2l-8-0.8c-11.6-1.6-23.2-2.8-34.4-4c-17.2-2-30-2.8-40-2.8c-10.4,0-24,0.8-42,2.8 c-11.2,1.2-23.6,2.8-32.8,4l-6.4,0.8c-30.4,4-61.6,8-88.4,9.2C81.2,306.8,76.4,307.2,72,307.2z M256,12C60,12,8,147.2,8,218.4 c0,47.6,26.4,80.8,64,80.8c4.4,0,9.2,0,14-0.4c26.4-1.2,57.6-5.2,87.6-9.2l6.4-0.8c9.2-1.2,21.6-2.8,32.8-4c18.4-2,32-3.2,43.2-3.2 c10,0,23.2,0.8,40.8,2.8c11.2,1.2,22.8,2.8,34.4,4l8,1.2c30,4,61.2,8,87.6,8.8l0,0c5.2,0.4,9.2,0.4,13.6,0.4c37.6,0,64-33.2,64-80.4 C504,147.2,452,12,256,12z"/>
    <path d="M86,306.4c-1.2,0-2.4-0.8-3.2-1.6c-1.2-2-0.8-4.4,1.2-5.6c42.8-29.6,110.4-49.2,172.4-49.2c28,0,58,4,86.4,11.6 c2,0.4,3.6,2.8,2.8,4.8c-0.4,2-2.8,3.6-4.8,2.8c-28-7.2-57.2-11.2-84.4-11.2c-60,0-126,18.8-167.6,47.6 C87.6,306,86.8,306.4,86,306.4z"/>
    <path d="M426.4,306.8c-0.8,0-1.6-0.4-2.4-0.8c-13.2-9.2-28.8-17.6-46-24.4c-2-0.8-3.2-3.2-2.4-5.2s3.2-3.2,5.2-2.4 c18,7.2,34,15.6,47.6,25.2c2,1.2,2.4,3.6,0.8,5.6C428.8,306,427.6,306.8,426.4,306.8z"/>
    <path d="M426.4,306.8c-0.8,0-1.2,0-2-0.4l-46.8-24.8c-2-1.2-2.8-3.6-1.6-5.6s3.6-2.8,5.6-1.6l46.8,24.8c1.2,0.8,2.4,2,2.4,3.6 C430.4,304.8,428.4,306.8,426.4,306.8z"/>
    <path d="M38.4,254.4c-1.6,0-2.8-0.8-3.6-2.4c-4.4-9.6-6.8-21.6-6.8-34.4c0-14.4,3.2-65.6,41.6-112.8c1.6-1.6,4-2,5.6-0.4 c1.6,1.2,2,4,0.4,5.6c-36.8,45.2-40,94-40,107.6c0,11.6,2,22.4,6,31.2c0.8,2,0,4.4-2,5.2C39.6,254.4,38.8,254.4,38.4,254.4z"/>
    <path d="M480,221.6c-2.4,0-4-1.6-4-4c0-7.2-0.8-22-5.6-40.4c-7.2-27.2-20.4-51.6-38.8-72.8c-8-9.2-17.2-17.6-27.2-24.8 c-1.6-1.2-2-4-0.8-5.6s4-2,5.6-0.8c10.4,7.6,20,16.4,28.4,26c19.6,22,33.2,47.6,40.8,76c5.2,19.6,6,34.8,6,42.4 C484,219.6,482.4,221.6,480,221.6z"/>
    <path d="M370.8,59.6c-0.4,0-1.2,0-1.6-0.4C358,54,345.6,50,332.4,46.8c-2-0.4-3.6-2.8-2.8-4.8c0.4-2,2.8-3.6,4.8-2.8 c13.6,3.2,26,7.6,38,12.8c2,0.8,2.8,3.2,2,5.2C374,58.8,372.4,59.6,370.8,59.6z"/>
  </g>
</symbol>


    <!-- Onion: purple bulb with green sprout -->
    <symbol id="i-onion" viewBox="0 0 36 36" aria-label="onion">
  <g fill="none" stroke="none">
    <path fill="#D39954" d="M26.617 32.441a4.017 4.017 0 0 0-1.025-1.172c.103-.421.056-.835-.307-1.103c-.9-.662-8.82.226-9.386 3.057c-.234 1.171.588 1.171 1.038.809c-.137.499-.212 1.011-.169 1.49a.49.49 0 0 0 .975-.087c-.03-.334.022-.694.111-1.051c.201.18.424.327.686.269c.312-.07.51-.378.64-.712c.015.212.046.348.05.363a.487.487 0 0 0 .593.345l.006-.002a.492.492 0 0 0 .348-.591a1.889 1.889 0 0 1-.019-.565c.442.267 1 .509 1.457.398c.581-.142.859-.631.997-1.113c.439.412.698.895.958 1.454a.489.489 0 1 0 .887-.412c-.185-.399-.414-.88-.793-1.348c.346.231.711.393.95.253c.166-.097.364-.302.545-.553c.377.336.589.721.592.727a.491.491 0 0 0 .662.202a.486.486 0 0 0 .204-.658z"/>
    <path fill="#EDD6A6" d="M21.708 6.32c-2.741-.932-5.978-3.134-6.754-6.03c-.273-1.02-.952 1.29-1.891 1.541c-.939.252-2.682-1.409-2.408-.389c.776 2.896-.926 6.422-2.834 8.599c-3.575 4.08-6.287 8.95-4.89 14.165c2 7.465 10.1 10.746 18.41 8.519s13.684-9.118 11.684-16.582c-1.398-5.215-6.182-8.077-11.317-9.823z"/>
    <path fill="#E2A759" d="M13.66 32.585c-3.296-1.993-7.838-5.273-8.227-11.23c-.425-6.519 4.936-10.098 5.304-13.826c.444 4.428-3.559 7.236-3.214 12.866c.313 5.101 2.429 8.841 6.137 12.19z"/>
    <path fill="#E2A759" d="M19.764 32.885c-3.097-1.934-6.932-5.916-7.944-11.203c-1.457-7.611 1.103-12.145.203-17.89c1.897 6.644 1.034 9.757 2.302 16.336c.825 4.282 2.9 10.213 5.439 12.757zm8.158-4.121c1.858-3.374 4.302-8.526 1.66-13.88c-2.891-5.858-9.474-6.237-11.657-9.281c1.829 4.057 6.85 4.447 9.367 9.495c2.28 4.574 2.166 8.912.63 13.666z"/>
    <path fill="#E2A759" d="M22.786 32.076c1.715-3.223 3.045-8.589 1.278-13.674c-2.543-7.32-7.027-9.966-9.121-15.392c1.679 6.703 3.983 8.966 6.174 15.298c1.427 4.12 2.596 10.295 1.669 13.768z"/>
  </g>
</symbol>


    <!-- Lettuce: leafy green with gentle veins -->
    <symbol id="i-lettuce" viewBox="0 0 24 24" aria-label="lettuce">
      <g class="s" fill="none">
        <!-- main leaf -->
        <path d="M12 4 C15 4 18 6.5 18 10 C18 14 15 18 12 21 C9 18 6 14 6 10 C6 6.5 9 4 12 4 Z" fill="#7BC96F"/>
        <!-- veins -->
        <path d="M12 6 C12 9 11 12.5 9.5 15.5 M12 6 C12 9 13 12.5 14.5 15.5" stroke="#5AA75D"/>
      </g>
    </symbol>

    <!-- Potato: irregular brown tuber with spots -->
    <symbol id="i-potato" viewBox="0 0 24 24" aria-label="potato">
      <g class="s" fill="none">
        <!-- main body -->
        <ellipse cx="12" cy="12" rx="7" ry="5" fill="#C99B66"/>
        <!-- spots -->
        <circle cx="10" cy="11" r="0.8" fill="#B78B5B" stroke="none"/>
        <circle cx="14" cy="9" r="0.7" fill="#B78B5B" stroke="none"/>
        <circle cx="15.5" cy="14" r="0.7" fill="#B78B5B" stroke="none"/>
      </g>
    </symbol>

    <!-- Corn: ear of corn with kernels and green husk -->
    <symbol id="i-corn" viewBox="0 0 24 24" aria-label="corn">
      <g class="s" fill="none">
        <!-- cob -->
        <ellipse cx="12" cy="12" rx="4" ry="8" fill="#F5C84C"/>
        <!-- kernels (rows) -->
        <path d="M10 8 H14 M10 10.5 H14 M10 13 H14 M10 15.5 H14" stroke="#E6B64B"/>
        <!-- husks -->
        <path d="M8 14 C6 16 5 18 5 20 L9 20" fill="#5FBF6A"/>
        <path d="M16 14 C18 16 19 18 19 20 L15 20" fill="#5FBF6A"/>
      </g>
    </symbol>

    <!-- Avocado: green fruit with lighter flesh and a brown seed -->
    <symbol id="i-avocado" viewBox="0 0 128 128" aria-label="avocado">
  <path d="M55.88 32.41S17.4 43.11 14.4 47.24 6.23 59.02 5.76 75.4c-.38 13.14 6.95 46.93 42.98 48.05 36.79 1.15 50.49-23.09 57.06-38.1 5.92-13.54 5.82-29.09 9.57-36.23s7.13-13.33 6.95-21.4-3.19-15.02-8.45-18.4c-5.26-3.38-9.76-2.82-12.01-3.38S55.88 32.41 55.88 32.41z" fill="#757e40"/>
  <path d="M62.63 18.9c-15.96 6.57-37.17 12.76-47.3 27.03-9.15 12.88-12.2 28.9.19 47.67 11.31 17.14 41.46 24.45 64.01 8.26 20.65-14.83 22.52-36.6 28.72-51.06s19.24-33.46 3.57-42.8c-16.71-9.94-36.58 5.71-49.19 10.9z" fill="#afb42a"/>
  <path d="M108.25 12.14c-7.59-4.38-17.27-2.44-27.97 2.82s-18.96 9.2-22.71 10.51C53.81 26.78 21.87 38.48 15.71 54c-5.07 12.76-3.75 29.47 9.57 41.67s46.93 11.45 59.88-6.95 13.51-33.22 16.33-39.79 8.96-16.19 10.7-21.4c2.06-6.19.94-12.57-3.94-15.39z" fill="#fff69d"/>
  <path d="M71.45 47.8c-6.01-7.13-28.91-4.88-36.79 6.38s-4.6 20.41-.75 25.34C38.6 85.53 51.37 90.97 63 82.9s15.04-27.28 8.45-35.1z" fill="#855c52"/>
  <path d="M47.32 60.62c-2.96 4.34-1.48 11.34-6.57 11.67s-8.05-7.84-4.44-14.68c3.9-7.38 13.14-10.67 15.77-7.17 2.64 3.51-1.95 6.06-4.76 10.18z" fill="#d67659"/>
</symbol>



    <!-- ========== FRUITS ========== -->

    <!-- Banana: keep the detailed original banana icon as the gold standard -->
    <symbol id="i-banana" viewBox="0 0 1024 1024" aria-label="banana">
      <path d="M746.666667 234.666667c21.333333 0 149.333333-21.333333 149.333333 170.666666S618.666667 938.666667 234.666667 938.666667c-42.666667 0-85.333333-21.333333-85.333334-21.333334l-21.333333-64s21.333333-85.333333 149.333333-149.333333 218.944-117.632 273.344-172.010667C593.344 489.344 661.333333 405.333333 661.333333 341.333333c0-41.770667 42.666667-85.333333 42.666667-85.333333" fill="#FFE082"/>
      <path d="M170.666667 874.666667s149.333333-42.666667 277.333333-106.666667 405.333333-256 320-533.333333c0 0 128-21.333333 128 170.666666S618.666667 938.666667 234.666667 938.666667c-42.666667 0-85.333333-21.333333-85.333334-21.333334l21.333334-42.666666z" fill="#FFCA28"/>
      <path d="M876.010667 297.344C836.010667 211.562667 746.666667 256 746.666667 85.333333c-64 0-106.666667 42.666667-106.666667 42.666667s64 64 64 128c42.666667 0 77.056-3.349333 80.874667 101.333333 28.842667-122.218667 91.136-59.989333 91.136-59.989333z" fill="#C0CA33"/>
      <path d="M661.333333 341.333333s-1.344-38.677333 42.666667-85.333333 85.994667-8.661333 85.994667-8.661333l-5.12 109.994666s-18.666667-69.333333-48-71.104C675.008 282.496 661.333333 341.333333 661.333333 341.333333z" fill="#C0CA33"/>
      <path d="M128 874.666667l21.333333 42.666666h21.333334v-42.666666l-42.666667-21.333334z" fill="#5D4037"/>
      <path d="M746.666667 85.333333c-64 0-106.666667 42.666667-106.666667 42.666667h64l42.666667-42.666667z" fill="#827717"/>
    </symbol>

    <!-- Apple: red apple with a green leaf -->
    <symbol id="i-apple" viewBox="0 0 128 128" aria-label="apple">
  <g fill="none" stroke-linecap="round" stroke-linejoin="round">
    <path d="M45.43 68.14l-5.45-13.51l.15-21.87s14.68-2.2 22.39-3.26s23.04-7.52 37.02-1.33c15.88 7.03 24.3 23.3 20.06 48.1s-22.83 44.87-39.57 47.03c-8.29 1.07-9.77-2.15-16.12-1.69c-5.14.37-4.86 3.04-13.63 2.59c-8.77-.45-16.21-3.71-20.59-9.15s15.74-46.91 15.74-46.91z" fill="#dc0d28"></path>
    <path d="M21.23 36.99c-12.57 10.5-18.5 32.63-8.47 56.25c8.92 21.02 23.17 27.03 23.17 27.03s24.92-1.63 42.31-11.01s34.18-25.71 34.18-47.18s-11.19-28.73-12.4-29.03c-1.21-.3-6.2 2.87-11.8 3.02c-5.6.15-9.98-1.21-9.98-1.21l-17.69 5.9l-16.54-3.86s-.53-2.31 1.26-3.25c3.72-1.94 11.49 1.36 14.67 1.21s5.9-4.39 5.9-4.39s-7.41-.76-9.98-1.36c-2.57-.58-19.96-4.37-34.63 7.88z" fill="#ff5117"></path>
    <path d="M62.03 37.12c-4.58.21-16.86-4.1-17.97-.73c-1.18 3.58 7.96 8.33 19.09 7.55c11.61-.81 18.84-7.23 17-10.69c-1.83-3.46-9.36 3.46-18.12 3.87z" fill="#8d1d0a"></path>
    <path d="M51.04 16.96s-1.93-.1-2.95-.51c-1.02-.41-2.46-.38-2.34-2.14c.2-2.95 3.98-5.98 4.89-6.52c1.73-1.02 4.76-.74 5.91 0c1.43.92.71 4.28.71 4.28s5.09 7.64 5.8 12.32c.65 4.27 3.31 16.73-.71 17.51c-3.67.71-2.14-8.86-4.17-13.54c-1.22-2.8-2.95-5.8-4.58-7.84c-1.57-1.94-2.56-3.56-2.56-3.56z" fill="#513630"></path>
    <path d="M105.41 5.05c.41-.71-.41-1.43-3.77-1.53c-3.36-.1-21.69-1.83-32.07 11.1c-7.46 9.29-6.31 17.21-6.31 17.21l6.82.31l35.33-27.09z" fill="#2f7c31"></path>
    <path d="M82.9 17.77c6.17-4.26 22.6-13.54 22.6-13.54s0 2.34-1.02 4.38S100 20.73 85.95 28.06c-13.19 6.88-21.99 5.19-22.71 3.97c-.7-1.22 9.48-7.23 19.66-14.26z" fill="#709f19"></path>
    <path d="M37.6 39.97c-2.73-3.93-9.34-2.82-15.27 5.09c-7.64 10.18-7.23 23.72-2.04 24.54c5.15.81.61-4.38 8.55-14.66c6.08-7.87 12.22-9.98 8.76-14.97z" fill="#ffd2b1"></path>
  </g>
</symbol>


    <!-- Orange: citrus fruit with a small leaf -->
    <symbol id="i-orange" viewBox="0 0 24 24" aria-label="orange">
      <g class="s" fill="none">
        <circle cx="12" cy="13" r="7" fill="#FFA344"/>
        <!-- highlight -->
        <ellipse cx="9" cy="10" rx="2" ry="2.5" fill="#FFC75F"/>
        <!-- leaf -->
        <path d="M12 5 C13.5 4 15 4.5 15.8 6 C14.2 6.1 13 5.7 12 5 Z" fill="#74C475"/>
      </g>
    </symbol>

    <!-- Lemon: yellow oval with a side bump and a leaf -->
    <symbol id="i-lemon" viewBox="0 0 64 64" aria-label="lemon">
  <path d="M28.2 4.6C21 1.3 16 11.5 16 11.5s2.1 4.7 5.3 5.7c11.6 3.5 21.6-12 21.6-12s-7.6 2.7-14.7-.6" fill="#77a836"/>
  <path d="M9 7.9c-.4 0-.5 1.5-.1 1.5c6.4 1.4 9 6.1 9.2 7c.3 1.2 2.1-.1 1.5-1.6c-.2-.2-3.9-6.1-10.6-6.9" fill="#947151"/>
  <path d="M57.8 57.8c.3.3 1.5.6 2.1 0c.6-.6.3-1.9 0-2.2c-.3-.3-1 0-1.5.6c-.6.7-.8 1.4-.6 1.6" fill="#64892f"/>
  <path d="M17.3 19.1c-.5-.7.1-2.3 1.5-3.8c1.4-1.4 3-2.1 3.7-1.6c8.4-5.4 21.2-2.9 30.4 6.6c8.2 8.5 11.1 20 7.8 28.6c1.6 2.1 1.1 5.7-1.4 8.3c-2.5 2.6-6 3.2-8 1.5c-8.3 3.3-19.4.4-27.6-8.1C14.5 41 12 27.8 17.3 19.1" fill="#ffe62e"/>
  <path d="M18.7 16.1C17.2 11.9 11 9.5 11 9.5s-12.6 7.1-8 16.3C7.5 34.9 4.6 45 4.6 45s19.2-14 14.1-28.9z" fill="#8cc63e"/>
  <path d="M11 9.5c-.9 1.2-1.7 2.5-2.3 3.9c-.6 1.4-1 3-1.2 4.6c-.4 3.2 0 6.3.2 9.4c.3 3 .3 6.1-.2 9.1s-1.6 5.9-2.9 8.6c.8-1.2 1.5-2.6 2.2-4c.6-1.4 1.1-2.9 1.5-4.4c.7-3.2.7-6.4.4-9.5c-.3-3.1-.7-6.2-.4-9.2c.2-3 1.3-5.9 2.7-8.5" fill="#7fb539"/>
</symbol>


    <!-- Strawberry: heart‑shaped berry with seeds and leaves -->
    <symbol id="i-strawberry" viewBox="0 0 128 128" aria-label="strawberry">
  <g fill="none" stroke="none">
    <path d="M73.13 16.43c-.58-.58-17.72-.37-17.72-.37L16.14 59.68s-1.37 12.84-.11 18.22c.71 3.03 2.16 8.48 6.56 14.95c3.01 4.43 5.37 6.35 5.37 6.35l23.44 10.13l39.19 4.03l22.95-14.89s1.71-6.84 1.1-11.84c-.61-5.01-1.59-8.79-1.47-12.09c.12-3.3 2.08-16.55-1.02-26.04c-2.74-8.38-10.82-19.99-20.95-25.97s-18.07-6.1-18.07-6.1z" fill="#ff2a23"/>
    <path d="M67.15 116.99c5.55 1.35 16.32 6.28 20.96 6.99c4.8.73 11.63.8 18.87-4.69c6.46-4.9 9.44-9.88 9.8-14.1c.51-5.91-.52-11.14-.84-13.64c-.31-2.5-1.72-7.94-1.72-7.94s-4.01 8.88-9.02 13.05s-17.1 9.7-29.09 10.11c-11.99.42-20.02.73-28.47-1.36s-22.8-9.51-22.8-9.51s5.04 7.5 14.88 13.05c7.43 4.19 11.9 5.26 14.91 5.94c4.68 1.07 8.24 1.05 12.52 2.1z" fill="#dc0d27"/>
    <path d="M35.87 33.05S15.34 63.72 15.15 68.83c-.21 5.84 1 9.32 1 9.32s4.17-.15 8.24-2.77c1.89-1.21 3.31-2.42 3.31-2.42s5.79 8.11 7.66 8.21s6.85-3.5 9.04-6.1c2.19-2.61 3.65-7.41 3.65-7.41s3.38 1.53 10.47 1.32s9.27-.84 9.79-1.36c.52-.52 1.22-3.81 1.84-6.42c.63-2.61.69-6.33.69-7.9c0-1.56-.44-3.94-.44-3.94s5.59-2.65 8.2-5.16c2.61-2.5 3.86-3.75 4.28-4.59c.42-.83-1.15-4.9-2.92-7.61s-4.17-4.59-4.17-4.59s3.55-2.82 5.01-4.38s3.36-3.99 3.36-3.99s-3.04-1.33-6.69-2.16c-3.65-.83-10.95-1.77-10.95-1.77L35.87 33.05z" fill="#dc0d27"/>
    <path d="M19.32 52.84c-.29.2-9.08 13.97-9.18 15.23c-.1 1.27-.31 3.31 1.07 4c.98.49 1.76-.39 2.44-.98s2.05-1.46 3.61-2.25s4.24-1.32 6.15-2.44c2.83-1.66 5.37-5.66 5.37-5.66l6.93 9.96l-2.47 6.14s1.74 2.09 2.09 2.35c.63.47 4.39-2.34 6.34-7.32s2.44-11.33 2.44-11.33s3.91 2.73 7.72 3.52c3.81.78 11.61.39 12.11-.2c.44-.52.7-7.96.31-11.28c-.39-3.32-2.22-7.71-2.22-7.71s3.96.63 8.65-.64s8.2-4 8.4-5.08s-2.68-3.82-2.68-3.82l-11.58-4.09l-1.4-3.49s5.92-1.74 9.01-5.4c2.23-2.65 6.23-6.01 6.23-7.58s-2.52-1.21-2.52-1.21l-21.48 8.59l-35.34 30.69z" fill="#759937"/>
    <path d="M29.77 26.42c6.31-5.8 12.68-10.56 22.95-13.23c10.23-2.66 17.37-1.35 19.03-1.05c1.66.29 6.66 1.2 6.27 1.73c-.17.23-3.82 1.96-7.44 4.3s-5.14 3.1-6.05 3.61c-1.36.76-3.32 1.81-3.24 3.03c.12 1.66 2.36 1.76 4.8 3.03c2.44 1.27 5.47 3.22 7.72 5.18s3.38 2.74 3.69 3.51c.34.84-7.01 4.79-11.99 4.69s-7.32-2.34-8.5-.59c-1.17 1.76 2.54 6.15 3.52 11.04s.98 9.77.98 9.77s-7.48.56-10.94-.69c-5.21-1.88-5.86-5.89-8.69-5.37c-3.83.7-.41 7.29-3.1 15.16c-2.4 7.04-4.44 7.58-4.44 7.58s-3.31-3.41-4.49-5.27s-2.53-2.82-2.82-6.82c-.29-4 .2-9.08-1.76-9.28s-2.44 3.91-4.69 5.96s-5.66 3.13-7.23 4.39c-1.56 1.27-3.18 3.53-3.18 3.53s-1.12-6.75 1.91-15.83s8.02-19.49 17.69-28.38z" fill="#98b715"/>
    <path d="M17.95 7.09c.25-.93 4.52-3.52 6.57-3.42s1.64.68 1.93 1.46s-1.17 8.2 1.17 12.5c2.11 3.87 4 5.76 8.2 5.66s-5.27 12.4-5.27 12.4s-8.11-4.49-11.33-12.79s-1.66-14.35-1.27-15.81z" fill="#98b715"/>
    <path d="M101.21 85.18c-1.85.09-3.55 2.61-2.58 6.03c.8 2.83 2.83 3.88 4.31 3.69c1.48-.18 2.83-2.46 2.28-5.66c-.43-2.43-1.55-4.18-4.01-4.06z" fill="#ffebca"/>
    <path d="M98.75 57.07c-2.53.65-2.28 3.97-1.72 5.78c.55 1.81 2.09 3.02 3.75 2.69s2.65-2.96 2.21-4.97c-.42-2.02-1.9-4.1-4.24-3.5z" fill="#ffebca"/>
    <path d="M85.4 33.62c-1.84 1.6-1.05 4.18.55 5.91c1.6 1.72 3.69 2.15 5.05 1.11s.92-4.68-.68-6.21c-1.6-1.54-3.51-2.04-4.92-.81z" fill="#ffebca"/>
    <path d="M76.46 54.55c-1.46 1.31-1.18 4.16.46 6.14c1.64 1.98 4.13 3.1 5.38 1.45c1.25-1.65.33-4.88-.98-6.6c-1.32-1.72-3.62-2.11-4.86-.99z" fill="#ffebca"/>
    <path d="M76.48 58.39c1.65.99 3.85-2.49 2.18-3.66c-1.8-1.27-4.25 2.42-2.18 3.66z" fill="#fffeff"/>
    <path d="M76.88 79.24c-1.35 1.68-.29 4.13.95 5.61c1.43 1.7 4.7 2.77 6.19 1.32c1.73-1.68.95-4.6-1.29-6.62c-1.69-1.52-4.49-2.02-5.85-.31z" fill="#ffebca"/>
    <path d="M78.94 104.01c-.58 2.09.3 4.04 4.18 4.68c3.38.55 5.11-1.05 5.05-2.77c-.04-1.17-1.35-3.14-4.55-3.69c-2.57-.45-4.19 0-4.68 1.78z" fill="#ffebca"/>
    <path d="M52.85 95.83c-1.31 1.96.3 4.67 1.91 5.91c1.84 1.42 4.92 1.11 5.72-.62c.8-1.72-.18-4.06-2.09-5.41c-1.91-1.36-4.43-1.54-5.54.12z" fill="#ffebca"/>
    <path d="M31.87 83.83c-2.42 2.02-.67 5.06.86 6.21c1.72 1.29 3.88 2.21 5.78.55s.06-5.11-1.11-6.15c-1.16-1.04-3.68-2.15-5.53-.61z" fill="#ffebca"/>
    <path d="M33.6 83.88c-1.63-.31-3.51 2.89-1.48 4.06c1.89 1.09 3.75-3.63 1.48-4.06z" fill="#fffffe"/>
    <path d="M55.68 74.23c-1.28 1.93-.06 4.92 1.54 5.97s4.06 1.78 5.54-.12c1.48-1.91.62-4.37-1.11-5.78c-1.72-1.42-4.61-2.1-5.97-.07z" fill="#ffebca"/>
    <path d="M57.9 73.74c-1.11-.12-1.78 1.05-1.97 2.15c-.18 1.11.12 2.21 1.29 2.46s1.85-1.48 1.91-2.15c.06-.68-.06-2.34-1.23-2.46z" fill="#ffffff"/>
  </g>
</symbol>


    <!-- Blueberries: two berries with star centres -->
    <symbol id="i-blueberry" viewBox="0 0 128 128">
  <path d="M21.1 23.79c-.46.11-2.08-1.23-7.01-.76c-1.87.18-2.55.66-2.55.66s.18-2.66 2.42-4.45c1.57-1.26 3.01-1.75 4-1.94c.71-.14 1.16-.81 1.05-1.53c-.27-1.71-.32-4.52 1.83-5.95c2.02-1.35 4.19-.42 5.52.46c.66.44 1.54.23 1.92-.48c.5-.94 1.33-2.17 2.62-3.17c2.51-1.94 4.85-.62 4.85-.62s-2.15 1.86-2.25 6.6c-.01.52.19 1.82-.09 2.28c-3.28 2.33-5.38 4.13-8.66 6.47c-1.37.98-1.75 1.24-3.14 2.19c-.18.13-.35.2-.51.24z" fill="#3f51b5"/>
  <circle cx="43.83" cy="39.44" r="30.22" fill="#3f51b5"/>
  <path d="M61.17 14.69c1.58 3.03 4.1 5.07 2.28 14.8c-1.41 7.54-7.71 15.42-20.65 16.26c-11.01.71-18.79-5.3-21.02-12.6c-2.12-6.94-.87-12.82 3.53-17.6c-11.22 7.48-11.7 20.41-11.7 23.88c0 16.69 13.53 30.22 30.22 30.22s30.22-13.53 30.22-30.22c.01-10.23-5.09-19.28-12.88-24.74z" fill="#303f9f"/>
  <g>
    <circle cx="90.39" cy="59.75" r="33.12" fill="#5064c9"/>
    <path d="M123.47 61.06c-5.69 14.41-18.79 25.92-39.19 19.6c-16.67-5.17-25.41-25-20.49-40.55a33.056 33.056 0 0 0-4.83 9.49c-5.56 17.42 4.02 36.05 21.41 41.6c17.39 5.55 36-4.07 41.56-21.49c.91-2.87 1.41-5.77 1.54-8.65z" fill="#4054b0"/>
    <path d="M100.36 46.17s3.48 8 9.12 6.08c3.38-1.15 2.5-6.79 2.5-6.79s8.99-.41 8.58-4.36c-.42-4.05-6.07-5.37-6.07-5.37s-.49-5.85-2.51-7.4c-3.37-2.57-7.56 1.42-7.56 1.42s-3.23-5.41-8.11-4.36c-3.91.84-1.77 9.2-1.77 9.2s-5.66-.07-3.31 4.58c2.57 5.1 9.13 7 9.13 7z" fill="#8092f2"/>
    <ellipse transform="rotate(-63.294 104.415 39.165)" cx="104.42" cy="39.16" rx="6.45" ry="7.34" fill="#2f3e82"/>
    <ellipse transform="rotate(-55.82 103.867 40.165)" cx="103.87" cy="40.17" rx="5.52" ry="6.36" fill="#5064c9"/>
  </g>
  <g>
    <circle cx="38.67" cy="88.24" r="34.18" fill="#6678d9"/>
    <path d="M70.98 77.09c.19 1.32.67 35.28-33.79 36.26c-14.12.4-23.69-8.91-28.13-19.59C4.5 82.79 9.9 69.8 9.9 69.8s-2.89 4.66-3.53 7.29c-1.21 3.5-1.87 7.25-1.87 11.15c0 18.88 15.3 34.18 34.18 34.18s34.18-15.3 34.18-34.18c-.01-3.91-.68-7.66-1.88-11.15z" fill="#5366cf"/>
    <path d="M35.42 81.76s-4.05 7.91-11.4 5.77c-3.4-.99-1.81-6.31-1.81-6.31s-4.75-.39-6.47-4.48c-1.54-3.66 6.7-5.12 6.7-5.12s-3.26-6 .19-8.42s7.21 3.02 7.21 3.02s3.07-8.86 7.06-5.93c3.82 2.81 2.85 10.91 2.85 10.91s6.88 1.16 4.56 5.81c-2.56 5.12-8.89 4.75-8.89 4.75z" fill="#9aa7ed"/>
    <ellipse transform="rotate(-12.285 30.206 75.172)" cx="30.2" cy="75.16" rx="7.77" ry="7.17" fill="#2c3f9e"/>
    <ellipse transform="rotate(-12.285 31.43 75.709)" cx="31.42" cy="75.7" rx="6.57" ry="6.3" fill="#5366cf"/>
  </g>
</symbol>


    <!-- Grapes: cluster of purple grapes with a vine -->
    <symbol id="i-grapes" viewBox="0 0 128 128" aria-label="grapes">
  <g class="s" fill="none" stroke="none">
    <path d="M35.88 45.15c-5.39 6.09-1.57 14.3-1.57 14.3l-14.74 9.61s-2.2 1-4.48 4.06c-1.67 2.24 14.44 23.39 14.44 23.39s2.62-.48 4.76-1.41c2.2-.96 4.9-3.46 4.9-3.46l17.44 17.75s1.3 2 3.98 2.62c3.68.86 5.05-.55 5.05-.55l22.74 5.61s1.14 1.28 2.28 2.11c1.14.83 3 1.6 3 1.6l18.49-19.91s-1.21-1.85-2.27-2.97c-1.62-1.72-3.86-2.84-3.86-2.84l-.68-21.95s-1.35-.86-5.03-1.51c-3.95-.7-6.75-2.28-6.75-2.28l-5.5-19.1l1.76-2.28s3.43-6.33-1.35-7.89c-4.78-1.56-16.4-2.49-16.4-2.49l-2.91-9.45s-1.49 1.52-2.53 3.28c-1.04 1.76-1.83 3.99-1.83 3.99l-17.34 5.5l-2.24.11c.02-.02-4.72-1.09-9.36 4.16z" fill="#4c186e"/>
    <path d="M25.24 55.08s7.86-1.29 7.75-2.23c-.1-.93-.34-11.45-.19-11.45c.1 0 4.35 1.2 8.12 2.24c4.77 1.32 7.16 2.19 7.16 2.19l1.97-6.96s-3.63-1.25-8.72-2.91c-4.09-1.33-8.64-2.61-9.3-3.39c-1.14-1.35-4.01-5.39-4.35-9.02c-.62-6.75 2.74-9.81 7.31-10.01c4.46-.2 6.64 2.39 8.31 2.49c1.66.1 3.31-2.73 2.28-5.81c-1.66-4.98-9.86-7.49-16.82-5.19C19 8.25 18.07 20.39 19.52 25.69c1.99 7.26 5.5 11.52 5.5 11.52l.22 17.87z" fill="#727f37"/>
    <path d="M52.65 33.49C46 36.71 40.69 49 49.95 57.37c7.58 6.85 18.06 3.11 21.28-2.39c2.79-4.77 3.74-12.35-.42-17.34s-11.19-7.53-18.16-4.15z" fill="#a363b1"/>
    <path d="M69.19 28.11s2.23-2.43 6.04-3.43c3.17-.83 7.69-1.06 12.66 2.3c5.21 3.52 6.26 9.41 5.59 14.28c-.7 5.04-3.52 9.39-6.37 10.18c-5.61 1.56 2.8-1.45 1.35-4.15c-1.45-2.7-9.52 1.53-16.2-6.54c-4.98-6.01-3.07-12.64-3.07-12.64z" fill="#a363b1"/>
    <path d="M74.14 60.48c-2.64 7.91 1.14 16.82 10.49 18.89c9.34 2.08 14.95-4.05 17.23-9.45c2.28-5.4.21-16.09-9.03-18.89s-16.41 2.6-18.69 9.45z" fill="#a363b1"/>
    <path d="M46.63 73.87c-2.38 7.52 1.87 14.43 7.06 17.03c6.58 3.29 16.4.42 19.1-7.47c2.49-7.27.62-15.57-7.27-18.48s-16.3.72-18.89 8.92z" fill="#a363b1"/>
    <path d="M19.22 60.9c-2.24 6.73 0 15.78 9.14 18.48c9.14 2.7 15.07-3.01 17.03-9.65c1.56-5.29 1.25-13.91-8.41-17.54c-9.42-3.55-15.79 2.79-17.76 8.71z" fill="#a363b1"/>
    <path d="M83.37 82.45c-3.05.59-4.7 3.37-6.07 6.63c-2.37 5.6-4.84 7.12-5.76 9.15c-1.18 2.6 2.23 4.82 3.63 5.6c2.39 1.33 11.55 2.85 15.54-5.05c5.1-10.12-2.85-17.2-7.34-16.33z" fill="#a363b1"/>
    <path d="M100.53 96.66c.07 1.09 12.02.54 11.87-11.58c-.12-9.29-7.08-12-7.08-12s-4.56 3.37-4.4 9.14c.16 5.78 1.28 4.91.93 9.62c-.11 1.47-1.35 4.42-1.32 4.82z" fill="#a363b1"/>
    <path d="M112.24 100.87s-8.02.34-12.67 6.67c-4.33 5.9-5.86 13.25-5.86 13.25s11.05 5.8 17.83-1.66c7.58-8.36.7-18.26.7-18.26z" fill="#a363b1"/>
    <path d="M65.62 107.45c-1.45.82-2.34 6.9.55 11.5c1.53 2.43 4.31 4.62 8.41 5.24c5.61.85 9.48-1.38 12.07-4.12c2.98-3.15 3.99-7.19 3.11-8.75c-1.66-2.92-5.98 1.04-13.32-.07c-7.34-1.1-8.3-5.22-10.82-3.8z" fill="#a363b1"/>
    <path d="M40.54 88.05c-1.3.27-5.88 5.28-5.44 11.63c.2 2.89.95 5.89 4 9.02c4.2 4.3 10.2 4.78 14.22 3.64c3.68-1.05 6.38-3.45 6.46-5.52c.09-2.53-.28-5.1-4.73-6.94c-2.02-.83-5.36-1.74-8.6-4.42c-5.28-4.38-4.59-7.69-5.91-7.41z" fill="#a363b1"/>
    <path d="M15.21 73.06s-2.42 2.81-3.22 7.02c-.55 2.92-.74 6.26 1.62 10.07c5.47 8.84 15.98 6.35 15.98 6.35s4.72-3.72 2.76-8.49c-.62-1.52-1.96-2.21-4.84-3.36c-4.95-1.98-7.89-5.05-9.39-7.1c-1.49-2.04-2.91-4.49-2.91-4.49z" fill="#a363b1"/>
    <path d="M86.78 54.66c-1.49-1.69-6.47-.24-8.91 5.44c-1.86 4.31-1.58 11 2.84 11.75c5.01.85 2.13-6.22 4.18-10.25c1.33-2.61 3.62-4.96 1.89-6.94z" fill="#dabcf3"/>
    <path d="M58.99 67.85c-2.13-2.37-6.47.47-8.36 5.36c-2.67 6.89.8 10.33 2.45 10.02c2.92-.55 2.68-4.1 4.1-7.65c1.12-2.78 3.88-5.43 1.81-7.73z" fill="#dabcf3"/>
    <path d="M75.02 26.79c-2.2-.41-2.85 2.14-2.85 3.83s.35 3.47 2.05 3.56c1.6.09 2.32-1.51 2.58-3.83c.23-1.96-.35-3.29-1.78-3.56z" fill="#dabcf3"/>
    <path d="M56.99 35.8c-2.73-1.5-6.96 1.39-7.93 7.92c-.83 5.63 1.35 9.31 4.44 8.59c3.48-.81 2.54-5.96 3.37-8.86c.87-3.03 2.62-6.27.12-7.65z" fill="#dabcf3"/>
    <path d="M28.93 56.18c-3.51-.8-5.84 2.68-6.39 6.23c-.44 2.8.12 6.75 2.92 7.34c3 .63 5.44-3 5.84-5.92c.39-2.92.39-7.02-2.37-7.65z" fill="#dabcf3"/>
    <path d="M15.9 80.81c-1.73.21-2.37 3.08-1.5 5.44c.87 2.37 1.89 3.47 3.71 3c2.03-.53.63-3.39.08-5.05c-.56-1.65-.32-3.62-2.29-3.39z" fill="#dabcf3"/>
    <path d="M40.37 94.04c-2.29.24-3.25 3.24-2.56 6.61c.56 2.71 2.57 5.66 5.09 4.7c2.59-.98.48-4.07-.17-6.54c-.66-2.46-.24-4.99-2.36-4.77z" fill="#dabcf3"/>
    <path d="M84.21 90.19c-1.87-1.42-4.17.04-5.77 2.4s-1.66 4.34-.09 5.6c1.73 1.39 4.34.28 5.75-1.96c1.2-1.91 2.08-4.54.11-6.04z" fill="#dabcf3"/>
    <path d="M68.48 111.31c-1.95.15-2.53 2.04-1.98 4.29c.45 1.84 1.89 3.03 3.33 2.44c1.23-.51 2.01-2.11 1.28-4.53c-.54-1.74-1.64-2.28-2.63-2.2z" fill="#dabcf3"/>
  </g>
</symbol>


    <!-- Watermelon slice: red flesh, green rind, black seeds -->
    <symbol id="i-watermelon" viewBox="0 0 24 24" aria-label="watermelon">
      <g class="s" fill="none">
        <!-- rind -->
        <path d="M3 17 C3 11 7.5 7 12 7 C16.5 7 21 11 21 17 Z" fill="#34C759"/>
        <!-- flesh -->
        <path d="M5.5 17 C5.5 13 8.5 10 12 10 C15.5 10 18.5 13 18.5 17 Z" fill="#FF4F58"/>
        <!-- seeds -->
        <circle cx="10" cy="15" r="0.6" fill="#1a1a1a" stroke="none"/>
        <circle cx="12" cy="13.8" r="0.6" fill="#1a1a1a" stroke="none"/>
        <circle cx="14" cy="15.2" r="0.6" fill="#1a1a1a" stroke="none"/>
      </g>
    </symbol>

    <!-- Pineapple: golden body with diamond pattern and leafy crown -->
    <symbol id="i-pineapple" viewBox="0 0 128 128" aria-label="pineapple">
  <g fill="none" stroke-linecap="round" stroke-linejoin="round">
    <path d="M64.36 54.09c-15.61-.56-28.51 9.61-31.55 29.94c-3.06 20.45 6.76 40.38 31.26 39.93c26.04-.47 34.07-21.65 30.62-41.26c-3.94-22.28-16.97-28.12-30.33-28.61z" fill="#ffbe1f"/>
    <path d="M77.01 72.23c-2.19-.06-6.91 4.64-7.85 5.69c-1.9 2.13-.5 4.24 1.69 3.18c2.11-1.02 5.38-3.28 6.2-3.29c.88-.01 3.42 1.67 4.49 2.48c3.08 2.3 4.79-.11 2.9-2.42c-1.06-1.29-4.92-5.57-7.43-5.64z" fill="#f79429"/>
    <path d="M50.92 72.29c-2.5-.13-8.08 5.56-8.38 5.88c-1.59 1.74-.11 3.75 2.01 2.85c1.22-.52 5.08-3.1 6.01-3.07c.69.02 2.19 1.14 4.35 2.55c3.54 2.3 5.49-.08 3.15-2.62c-2.36-2.56-4.97-5.48-7.14-5.59z" fill="#f79429"/>
    <path d="M40.09 86.26c-1.45-.1-4.41 2.6-5.24 3.52c-.83.92-1.5 1.73-.87 2.7c.43.66 1.78.69 2.8.11c1.31-.74 2.66-1.47 3.17-1.45c.83.04 4.12 2.95 5.14 3.82c2.66 2.25 4.35-.77 2.88-2.51c-1.57-1.86-5.2-6-7.88-6.19z" fill="#f79429"/>
    <path d="M64.13 86.5c-2.78-.04-7.96 5.49-8.75 6.41c-1.91 2.23-.46 5.2 2.51 3.12c.89-.63 4.63-3.84 5.98-3.74c.86.07 3.79 2.37 5.8 3.78c2.68 1.89 4.49-.29 2.64-2.77c-.83-1.12-5.11-6.76-8.18-6.8z" fill="#f79429"/>
    <path d="M87.35 85.87c-1.61-.09-7.02 5.6-7.94 6.8c-1.59 2.08.15 4.06 2.59 2.33c1.73-1.23 5.32-3.94 5.69-3.96c.53-.04 1.95 1.03 3.04 1.66c1.17.68 2.51.62 2.92-.15c.56-1.04-.27-2.06-1.12-2.85c-1.42-1.34-3.78-3.75-5.18-3.83z" fill="#f79429"/>
    <path d="M76.5 101.91c-2.9.05-7.07 4.98-7.83 6.25c-1.45 2.44.78 3.46 2.03 2.84c1.89-.95 3.93-3.16 5.95-3.53c.87-.16 3.69 2.07 4.43 2.53c3.68 2.3 5.01-.81 2.58-3.22c-1.75-1.73-5.07-4.91-7.16-4.87z" fill="#f79429"/>
    <path d="M51.76 101.82c-2.04-.1-6.92 4.33-8.14 5.51c-1.64 1.6-.45 4.26 2.15 3c2.27-1.1 4.99-2.78 5.75-2.74c.96.05 3.03 1.66 4.26 2.5c3.66 2.52 5.24-.25 2.96-2.89c-1.63-1.87-4.78-5.27-6.98-5.38z" fill="#f79429"/>
    <path d="M25.53 23.68c-.91-1.17 4.1-3.87 9.38-4.02c6.63-.19 12.71 1.57 12.71 1.57s.55-4.36-2.95-9.24c-2.4-3.35-3.49-5.01-3.42-6.2c.07-1.2 5.27-1.93 12.2 1.16c5.79 2.58 10.29 7.5 10.29 7.5s3.66-5.12 8.48-7.59C77.82 4 84.68 3.51 85.28 4.64c.46.86-1.72 3.38-3.15 6.62c-2.25 5.08-2.12 9.27-2.12 9.27s4.66-3.4 9.66-4.4c2.54-.51 10.03-.97 9.53.86c-.08.29-12.88 9.28-12.88 9.28l-1.91 9.35s6.79-3.88 12.84-3.17c3.13.37 2.61 1.35 2.61 1.35l-14.52 8.24l-2.16 7.13s4.07-1.02 8.03-1.07c1.91-.02 5.04.48 5.19 1.45c.2 1.25-8.75 5.67-8.75 5.67l-24.09 9.76l-22.87-8.28s-10.27-1.62-10.27-2.74c0-1.13 2.05-2.01 5.13-2.49c3.56-.56 7.22-.36 7.22-.36L32.2 44.1s-6.5-.61-7.06-1.88c-.56-1.27 2.92-3.59 5.05-4.21c5.39-1.58 11.53-.32 11.53-.32l-3.47-9.29c-.02-.03-11.73-3.45-12.72-4.72z" fill="#2f7c31"/>
    <path d="M54.36 33.59c.54.27 1.94-3.05 3.67-5.18c2.52-3.11 5.8-5.44 6.37-5.44c.55 0 3.12 1.95 5.35 4.62c2.7 3.24 3.91 5.95 4.18 6.08c1 .49 4.24-5.22 10.48-10.04c5.39-4.17 14.34-7.9 14.81-6.64c.15.41-4.44 3.43-8.84 9.55c-4.83 6.71-4.36 13.94-4.36 13.94s5.53-3.97 7.31-4.89c1.49-.77 7.14-2.94 6.5-1.73c-.46.86-5.86 6.24-8.96 9.19c-4.88 4.62-6.32 11.51-5.85 11.9c.54.45 4.17-2.24 6.36-3.47c2.08-1.17 5.02-2.12 5-1.92c-.13 1.47-5.43 5.29-9.16 8.64c-2.76 2.47-8.1 9.52-23.31 9.27c-12.57-.2-19.92-6.78-24.5-9.24c-3.16-1.7-9.04-3.6-8.97-4.18c.04-.32 2.8-.54 4.66-.31c5.14.62 8.44 2.17 8.79 1.72c.36-.46-4.55-6.68-13.03-10.46c-4.09-1.83-5.88-2.3-5.8-3.12c.03-.36 2.59-.83 5.85-.94c5.78-.19 11.28 1.85 11.79 1.91c1.2.15-3.65-8.26-6.4-11.54c-4.36-5.21-11.16-6.6-10.88-7.91c.15-.71 8.07-.81 14.57 1.63c6.77 2.52 13.2 7.98 14.37 8.56z" fill="#709921"/>
    <path d="M64.38 38.24c-.61.08-3.02 1.38-6.19 4.71c-3.75 3.93-5.07 8.18-4.2 8.9c1.17.96 2.8-.87 5.04-2.45c2.64-1.86 4.78-2.87 5.24-2.87c.46 0 2.52 1.3 4.25 2.61c2.15 1.64 4.01 3.41 4.96 2.81c1.6-.99-.62-6.17-3.12-9c-2.66-3.02-5.45-4.78-5.98-4.71z" fill="#2f7c31"/>
  </g>
</symbol>


    <!-- Pear: green pear with shading -->
    <symbol id="i-pear" viewBox="0 0 128 128" aria-label="pear">
  <g fill="none" stroke-linecap="round" stroke-linejoin="round">
    <path d="M64.52 22.23c-9.49-.12-13.06 5.54-16.3 12.69c-2.48 5.47-4.33 13.61-9.49 20.63s-17.84 16.09-16.3 34.86c1.55 18.77 14.33 32.4 42.19 32.9c28.47.52 41.62-18.87 41.26-38.37c-.31-16.5-14.77-26.09-19.7-35.07c-7.53-13.72-4.64-27.43-21.66-27.64z" fill="#b7d118"></path>
    <path d="M57.39 6.32c-.21.79 1.29 7 2.03 9.94c.98 3.9 2.14 8.86 2.93 11.26c.42 1.28 1.53 1.76 2.54 1.67c1.04-.09 2.31-.89 2.31-2.26c-.01-2.55.07-10.04.12-13.02s.39-8.99.35-9.86c-.02-.42-2.49-.86-5.4-.43c-2.93.43-4.76 2.26-4.88 2.7z" fill="#865c51"></path>
    <path d="M55.29 37.87c-2.64-.22-3.3 3.03-4.32 7.08c-1.03 4.05-3.24 9.13-5.73 12.97c-4.22 6.52-8.54 9.94-11.18 16.37c-2.47 6-2.73 13.85 2.92 14.69c6.54.97 7.38-7.8 8.37-11.45c1.03-3.78 2.59-7.35 5.24-11.78c1.94-3.25 6.28-12.13 7.02-18.53c.76-6.49.86-9.08-2.32-9.35z" fill="#e4f57d"></path>
    <path d="M79.31 71.94c-1.31-1.26-3.18-.7-3.96.13c-.74.78-1.34 2.61-.08 3.91c1.26 1.31 3.13.7 4.04-.17c1-.96 1.13-2.78 0-3.87z" fill="#e4dc9f"></path>
    <path d="M84.09 74.9c-1.15 1.29-.83 3.05.09 3.83c.91.78 2.68.64 3.61-.48c1.13-1.35.44-3.05-.22-3.61c-.65-.57-2.39-.96-3.48.26z" fill="#e4dc9f"></path>
    <path d="M91.62 78.56c-1.47 1.27-.79 3.1-.16 3.77c.87.91 2.68.85 3.59-.11c.91-.96 1.17-2.83.03-3.7c-1.12-.88-2.51-.79-3.46.04z" fill="#e4dc9f"></path>
    <path d="M78.57 62.46c-1.04 1.14-.78 2.87.04 3.61s2.82 1.3 3.92-.35c.87-1.31.17-2.78-.61-3.44c-.83-.69-2.48-.78-3.35.18z" fill="#e4dc9f"></path>
    <path d="M69.95 62.63c-1.23 1.39-.42 2.97.35 3.74c.87.87 2.65 1.09 3.61.04c.96-1.04.87-2.61 0-3.74c-.87-1.13-3-1.13-3.96-.04z" fill="#e4dc9f"></path>
    <path d="M75.65 49.1c-1.13-.61-2.13.09-2.65.78c-.52.7-.48 2.18.35 2.74c.83.57 2.39.64 3.05-.48c.6-1.04.4-2.42-.75-3.04z" fill="#e4dc9f"></path>
  </g>
</symbol>


    <!-- Peach: rosy fruit with subtle shading and a green leaf -->
    <symbol id="i-peach" viewBox="0 0 64 64" aria-label="peach">
  <path d="M34.4 9.1c0-2.3-3.4-2.7-3.4-.5c0 2.6-1.4 3.6-1.4 5c0 1.8 4 2.1 4 .2c0-1.8.8-1.6.8-4.7" fill="#8e6244"/>
  <path d="M33.1 8.8c2.8 0-2.3-3.6-2.3-.3c0 2.6-1.9 3.9-1.1 5.6c1.8-2.2.5-5.3 3.4-5.3" fill="#a87451"/>
  <path d="M4.4 32.7c0-16.2 13.2-26.1 27.2-18.5C46 6.9 62 16.5 62 32.7c0 14.5-8 22.7-18 26.4c-3.6 1.3-10.4 3-14.2 2.9c-2.8-.1-2.7-1.5-5.4-2.3c-10.9-3.2-20-11.6-20-27" fill="#ff9463"/>
  <path d="M32.4 8.3c-.1 0-.2-.1-.3-.2c-2-3-3.9-2.3-3.9-2.3l-.2-1s2.4-.8 4.8 2.6c.1.2.1.6 0 .7c-.2.2-.3.2-.4.2" fill="#8cc63e"/>
  <path d="M24.3 2.1C14.3 1.1 4 12.6 4 12.6s7-2.6 13-1.4c6.1 1.3 11.5-6 11.5-6s-1.4-2.9-4.2-3.1z" fill="#7fb539"/>
  <path d="M15 10C9.8 17 2 21 2 21s14.9 1.5 23.9-8.8c2.6-2.9 2.6-7.1 2.6-7.1S20.3 2.9 15 10z" fill="#8cc63e"/>
  <path d="M28.5 5.1c-1 .2-2.2.5-3.3 1c-1.2.5-2.3 1.1-3.5 1.9c-2.3 1.5-4.5 3.4-6.5 5.1c-2.1 1.8-4.2 3.4-6.4 4.8C6.5 19.1 4.3 20.2 2 21c1.1-.3 2.2-.6 3.3-1.1c1.1-.5 2.3-1 3.5-1.7c2.4-1.3 4.6-3.1 6.7-4.8c2.1-1.8 4.1-3.6 6.3-5.1c2.2-1.5 4.5-2.5 6.7-3.2" fill="#7fb539"/>
  <path d="M40.5 33.9c.4 3.6.3 7.1-.7 10.5c-1 3.4-2.8 6.5-5.8 9.2c4.2-1.6 7.3-4.7 8.9-8.2c1.7-3.5 2.2-7.5 1.7-11.4c-.5-3.9-1.9-7.9-4.3-11.5c-2.3-3.6-5.8-7.1-10.3-9.1c3.5 3 5.7 6.4 7.4 9.9c1.6 3.4 2.6 7 3.1 10.6" fill="#d97448"/>
</symbol>


    <!-- ========== PANTRY / DAIRY / MEAT ========== -->

    <!-- Coffee cup: brown mug with cream rim -->
    <symbol id="i-coffee" viewBox="0 0 512 512" aria-label="coffee">
  <g>
    <rect x="92.204" y="460.255" fill="#E8D6BD" width="327.593" height="43.574"/>
    <path fill="#E8D6BD" d="M419.807,8.17v43.574c-0.011,0-327.615,0-327.615,0V8.17H419.807z"/>
  </g>
  <path fill="#D2BA9C" d="M419.796,51.745c-61.179,128.915-61.179,279.596,0,408.511H92.204 c61.179-128.915,61.179-279.596-0.011-408.511H419.796z"/>
  <g>
    <path fill="#BD9F79" d="M92.193,51.745c61.189,128.915,61.189,279.596,0.011,408.511 C31.014,331.34,31.014,180.66,92.193,51.745z"/>
    <path fill="#BD9F79" d="M419.807,51.745c61.179,128.915,61.179,279.596-0.011,408.511 C358.618,331.34,358.618,180.66,419.807,51.745z"/>
  </g>
  <path fill="#B75548" d="M200.606,200.606l110.788,110.788c-21.079,21.079-62.965,13.366-93.565-17.223 C187.239,263.571,179.527,221.685,200.606,200.606z"/>
  <path fill="#8E4238" d="M294.171,217.829c30.589,30.589,38.302,72.486,17.223,93.565L200.606,200.606 C221.685,179.527,263.582,187.239,294.171,217.829z"/>
  <g fill="#700D00">
    <path d="M115.11,403.047c-4.249-1.521-8.925,0.69-10.447,4.936l-4.523,12.619 c-1.523,4.247,0.684,8.925,4.932,10.449c0.912,0.327,1.842,0.481,2.758,0.481c3.351,0,6.494-2.078,7.691-5.413l4.525-12.626 C121.567,409.246,119.357,404.569,115.11,403.047z"/>
    <path d="M127.332,357.731c-4.375-1.094-8.813,1.566-9.908,5.945l-3.256,13.004 c-1.097,4.377,1.561,8.814,5.938,9.912c0.667,0.167,1.336,0.247,1.994,0.247c3.658,0,6.988-2.475,7.919-6.185l3.258-13.012 C134.371,363.262,131.709,358.826,127.332,357.731z"/>
    <path d="M135.045,311.431c-4.464-0.656-8.618,2.424-9.278,6.887l-1.965,13.262 c-0.662,4.463,2.419,8.619,6.883,9.281c0.406,0.06,0.81,0.089,1.209,0.089c3.982,0,7.469-2.915,8.072-6.972l1.966-13.27 C142.592,316.245,139.508,312.091,135.045,311.431z"/>
    <path d="M138.188,264.598c-4.512-0.209-8.339,3.255-8.56,7.762l-0.658,13.392 c-0.222,4.507,3.251,8.34,7.757,8.562c0.137,0.007,0.273,0.01,0.41,0.01c4.327,0,7.938-3.399,8.153-7.767l0.659-13.397 C146.169,268.652,142.694,264.819,138.188,264.598z"/>
    <path d="M136.624,217.688c-4.503,0.283-7.924,4.165-7.641,8.668c0.273,4.343,0.49,8.774,0.644,13.167 c0.155,4.412,3.78,7.884,8.16,7.884c0.097,0,0.194-0.001,0.292-0.004c4.51-0.159,8.037-3.942,7.879-8.451 c-0.159-4.545-0.385-9.128-0.667-13.621C145.007,220.826,141.118,217.422,136.624,217.688z"/>
    <path d="M130.693,171.133c-4.463,0.662-7.544,4.818-6.88,9.282l1.965,13.261 c0.6,4.059,4.088,6.976,8.072,6.976c0.398,0,0.8-0.029,1.205-0.089c4.464-0.659,7.547-4.813,6.888-9.277l-1.967-13.273 C139.313,173.551,135.16,170.464,130.693,171.133z"/>
    <path d="M114.171,135.315l3.259,13.005c0.929,3.711,4.259,6.188,7.92,6.188c0.657,0,1.325-0.08,1.991-0.247 c4.377-1.096,7.037-5.533,5.941-9.91l-3.262-13.012c-1.098-4.377-5.537-7.035-9.913-5.936 C115.729,126.501,113.071,130.939,114.171,135.315z"/>
    <path d="M104.624,103.9c1.162,3.391,4.333,5.523,7.728,5.523c0.878,0,1.772-0.143,2.65-0.443 c4.268-1.463,6.543-6.109,5.08-10.378c-1.464-4.27-3.013-8.591-4.606-12.841c-1.583-4.226-6.292-6.368-10.517-4.786 c-4.226,1.583-6.368,6.291-4.786,10.517C101.713,95.6,103.21,99.775,104.624,103.9z"/>
    <path d="M407.337,407.984c-1.521-4.249-6.203-6.456-10.446-4.937c-4.249,1.522-6.459,6.198-4.937,10.447 l4.525,12.627c1.197,3.336,4.339,5.413,7.691,5.413c0.916,0,1.848-0.155,2.758-0.482c4.247-1.524,6.456-6.202,4.932-10.449 L407.337,407.984z"/>
    <path d="M397.832,376.678l-3.256-13.005c-1.095-4.377-5.529-7.036-9.909-5.944 c-4.378,1.095-7.038,5.532-5.942,9.909l3.258,13.011c0.93,3.71,4.259,6.185,7.919,6.185c0.658,0,1.327-0.081,1.994-0.247 C396.272,385.493,398.93,381.055,397.832,376.678z"/>
    <path d="M381.316,340.86c4.464-0.662,7.545-4.818,6.883-9.281l-1.966-13.262 c-0.659-4.464-4.816-7.543-9.278-6.887c-4.464,0.66-7.547,4.814-6.886,9.278l1.966,13.27c0.602,4.057,4.089,6.972,8.071,6.972 c0.406,0,0.81-0.028,1.216-0.089z"/>
    <path d="M375.272,294.313c4.508-0.222,7.981-4.056,7.758-8.562l-0.658-13.393 c-0.221-4.507-4.051-7.969-8.56-7.761c-4.508,0.221-7.982,4.055-7.761,8.561l0.658,13.396c0.216,4.369,3.827,7.767,8.154,7.767 c0.273,0,0.409-0.004,0.546-0.011z"/>
    <path d="M373.921,247.403c0.098,0.003,0.195,0.004,0.292,0.004c4.38,0,8.006-3.473,8.159-7.884 c0.155-4.393,0.371-8.824,0.645-13.167c0.283-4.503-3.137-8.384-7.642-8.668c-4.507-0.278-8.384,3.137-8.667,7.641 c-0.283,4.494-0.507,9.078-0.666,13.621C365.884,243.46,369.411,247.244,373.921,247.403z"/>
    <path d="M376.944,200.563c0.405,0.06,0.808,0.089,1.206,0.089c3.983,0,7.471-2.917,8.071-6.975l1.966-13.263 c0.661-4.463-2.419-8.619-6.883-9.281c-4.454-0.657-8.619,2.418-9.281,6.883l-1.966,13.271 C369.398,195.75,372.481,199.903,376.944,200.563z"/>
    <path d="M384.66,154.261c0.666,0.167,1.333,0.247,1.99,0.247c3.659,0,6.99-2.477,7.92-6.188l3.259-13.006 c1.098-4.377-1.56-8.815-5.936-9.913c-4.371-1.097-8.814,1.559-9.913,5.936l-3.262,13.014 C377.623,148.728,380.283,153.165,384.66,154.261z"/>
    <path d="M407.04,80.976c-4.229-1.584-8.935,0.559-10.517,4.786c-1.593,4.253-3.143,8.573-4.606,12.842 c-1.463,4.269,0.812,8.915,5.08,10.377c0.878,0.301,1.771,0.443,2.65,0.443c3.393,0,6.566-2.133,7.728-5.523 c1.414-4.124,2.911-8.299,4.45-12.408C413.408,87.267,411.266,82.558,407.04,80.976z"/>
    <path d="M427.972,49.912V8.17c0-4.512-3.657-8.17-8.17-8.17H92.197c-4.512,0-8.17,3.658-8.17,8.17v41.742 C54.004,113.821,38.141,185.041,38.141,256s15.864,142.178,45.887,206.088v41.742c0,4.512,3.658,8.17,8.17,8.17h327.604 c4.513,0,8.17-3.658,8.17-8.17v-41.742c30.024-63.91,45.886-135.129,45.887-206.088 C473.859,185.041,457.996,113.821,427.972,49.912z M417.277,446.171c-1.234-0.037-2.495,0.198-3.69,0.756 c-4.089,1.908-5.858,6.769-3.95,10.859l1.996,4.281v33.593H100.368v-27.234h286.753c4.513,0,8.17-3.658,8.17-8.17 c0-4.512-3.657-8.17-8.17-8.17H97.403c-56.734-122.951-57.626-262.779-2.678-386.26c0.081,0.002,0.159,0.017,0.24,0.017 c1.156,0,2.33-0.247,3.447-0.768c4.089-1.906,5.86-6.767,3.952-10.857l-1.997-4.284V16.34h311.264v27.234H124.878 c-4.512,0-8.17,3.658-8.17,8.17s3.658,8.17,8.17,8.17h289.719C471.33,182.864,472.222,322.69,417.277,446.171z"/>
    <path d="M330.193,266.7c-3.55-19.284-14.291-38.691-30.247-54.646c-19.724-19.724-45.13-31.5-67.96-31.5 c-14.969,0-27.817,4.936-37.156,14.276c-12.153,12.153-16.777,30.076-13.024,50.47c3.55,19.284,14.292,38.691,30.247,54.646 c19.725,19.724,45.13,31.5,67.96,31.5c14.956,0,27.797-4.93,37.134-14.255C329.329,304.982,333.945,287.073,330.193,266.7z M280.014,315.104c-18.591,0-39.678-9.986-56.406-26.713c-13.637-13.637-22.774-29.99-25.731-46.049 c-2.1-11.408-0.828-21.539,3.549-29.363l21.289,21.288c1.595,1.595,3.686,2.393,5.777,2.393s4.182-0.797,5.777-2.393 c3.191-3.191,3.191-8.364,0-11.554l-21.294-21.294c5.336-2.978,11.776-4.525,19.012-4.525c18.592,0,39.678,9.986,56.405,26.713 c13.638,13.637,22.775,29.991,25.732,46.05c2.1,11.408,0.828,21.538-3.548,29.362l-53.196-53.197 c-3.191-3.191-8.364-3.191-11.555,0c-3.191,3.191-3.191,8.364,0,11.554l53.201,53.202 C293.69,313.557,287.249,315.104,280.014,315.104z"/>
  </g>
</symbol>

    <!-- Peanut butter (jar with lid and label) -->
    <symbol id="i-peanut-butter" viewBox="0 0 24 24" aria-label="peanut butter">
      <g class="s" fill="none">
        <!-- jar body -->
        <rect x="7" y="6" width="10" height="13" rx="2" fill="#C68642"/>
        <!-- lid -->
        <rect x="7" y="6" width="10" height="3" fill="#D95F02"/>
        <!-- label circle representing a peanut -->
        <ellipse cx="12" cy="13" rx="2.5" ry="1.7" fill="#E0A46A"/>
        <!-- peanut lines -->
        <path d="M12 12.1 C11 12.1 10.5 13 11 13.9 C10.5 14.5 11 15.7 12 15.7 C13 15.7 13.5 14.5 13 13.9 C13.5 13 13 12.1 12 12.1 Z" fill="#D39B54"/>
      </g>
    </symbol>

    <!-- Milk: classic milk bottle with coloured band -->
    <symbol id="i-milk" viewBox="0 0 24 24" aria-label="milk">
      <g class="s" fill="none">
        <!-- bottle body -->
        <rect x="8" y="5" width="8" height="15" rx="2" fill="#FFFFFF"/>
        <!-- coloured band -->
        <rect x="8" y="10" width="8" height="5" fill="#B3E5FC"/>
        <!-- neck line -->
        <path d="M8 8 H16"/>
      </g>
    </symbol>

    <!-- Eggs: two pale eggs side by side -->
    <symbol id="i-eggs" viewBox="0 0 24 24" aria-label="eggs">
      <g class="s" fill="none">
        <ellipse cx="10" cy="14" rx="4" ry="5" fill="#FFF3E0"/>
        <ellipse cx="14" cy="11" rx="4" ry="5" fill="#FFF3E0"/>
      </g>
    </symbol>

    <!-- Cheese: wedge of cheese with holes -->
    <symbol id="i-cheese" viewBox="0 0 24 24" aria-label="cheese">
      <g class="s" fill="none">
        <!-- wedge shape -->
        <path d="M4 15 L13 8 L20 15 V19 H4 Z" fill="#FFD54F"/>
        <!-- holes -->
        <circle cx="10" cy="15" r="1" fill="#FBC02D" stroke="none"/>
        <circle cx="14" cy="13" r="1" fill="#FBC02D" stroke="none"/>
        <circle cx="16" cy="16" r="0.7" fill="#FBC02D" stroke="none"/>
      </g>
    </symbol>

    <!-- Yogurt: tub with a coloured lid -->
    <symbol id="i-yogurt" viewBox="0 0 24 24" aria-label="yogurt">
      <g class="s" fill="none">
        <!-- body -->
        <rect x="6" y="7" width="12" height="11" rx="3" fill="#FFFFFF"/>
        <!-- lid -->
        <rect x="6" y="7" width="12" height="3" fill="#B3E5FC"/>
        <!-- swirl graphic -->
        <path d="M9 13 C10 12 11 13 12 14 C13 15 14 16 15 15" stroke="#F8BBD0"/>
      </g>
    </symbol>

    <!-- Tuna can: tin with fish emblem -->
    <symbol id="i-tuna" viewBox="0 0 24 24" aria-label="tuna can">
      <g class="s" fill="none">
        <!-- top of can -->
        <ellipse cx="12" cy="7" rx="8" ry="3" fill="#90CAF9"/>
        <!-- body of can -->
        <rect x="4" y="7" width="16" height="8" fill="#64B5F6"/>
        <!-- bottom of can -->
        <ellipse cx="12" cy="15" rx="8" ry="3" fill="#90CAF9"/>
        <!-- fish emblem on the side -->
        <path d="M8.5 11 C9.5 10 10.5 10 12 11 C13.5 12 14.5 12 15.5 11 C14.5 13 13.5 13 12 12 C10.5 11 9.5 11 8.5 13 Z" fill="#3982CE"/>
      </g>
    </symbol>

    <!-- Salmon fillet: pink fillet with gentle lines -->
    <symbol id="i-salmon" viewBox="0 0 512 512" aria-label="salmon">
  <path fill="#B4CBDC" d="M196.749,306.744c-19.5,21.5-48,32-48,32l-32-40l16-8L196.749,306.744z"/>
  <path fill="#7DA0BE" d="M308.749,204.744c0,0-22.5-23.625-48-42c0,0-16,16-48,30l24,18L308.749,204.744z"/>
  <path fill="#EBF5FA" d="M500.749,242.744c-20,6-32,32-32,32h32c-18.667,15.334-85.333,48-160,48s-142.667,5.334-216-32
    c-55.831-28.424-55,32-120,32c0,0,16-41,16-64s-16-64-16-64c65,0,63,58,120,32s197-32,224-32S474.749,229.744,500.749,242.744z"/>
  <path fill="#CFE0EB" d="M468.749,274.744c0,0,12-26,32-32c-12.725-6.363-42.944-17.987-73.643-28.207
    c-40.253,48.484-27.694,82.08-16.146,99.193c43.381-10.808,77.32-28.744,89.789-38.986H468.749z"/>
  <path fill="#96BEE1" d="M348.749,194.744c-27,0-167,6-224,32s-55-32-120-32c0,0,16,41,16,64c0,0.826-0.063,1.723-0.104,2.594
    c99.936,16.699,152.104-29.841,312.104-29.841c28.439,0,48.376,5.542,69.323,14.608l14.826,6.784
    c3.835,1.858,7.768,3.813,11.852,5.854c32,16,48-16,72-16C474.749,229.744,375.749,194.744,348.749,194.744z"/>
  <path fill="#7DA0BE" d="M78.749,295.744c-6.976-5.212-23-22.945-23-36c0-13.553,14.934-28.91,22-34
    c-19.25-15-27.825-31-73-31c0,0,16,41.641,16,65s-16,65-16,65C49.054,324.744,58.749,307.744,78.749,295.744z"/>
  <path fill="#7DA0BE" d="M288,196c0,0,1.5-23.5-24-48l-48,40l16,16"/>
  <path fill="#B4CBDC" d="M232,324v40c0,0,35-6.5,40-40"/>
  <path fill="#B4CBDC" d="M416,292c0,0-35-24-64-24s1.685,35.089,8,40c4.5,3.5,48,8,48,8"/>
  <path d="M511.532,273.304C510.393,270.122,507.378,268,504,268h-17.799c4.985-6.733,12.028-13.916,20.098-16.337"/>
  <path d="M447.999,252.004c0,2.1,0.85,4.16,2.34,5.65c1.49,1.489,3.55,2.34,5.66,2.34c2.11,0,4.17-0.851,5.66-2.34
    c1.49-1.48,2.34-3.551,2.34-5.65c0-2.11-0.85-4.17-2.34-5.66s-3.55-2.35-5.66-2.35c-2.1,0-4.16,0.859-5.66,2.35
    C448.849,247.834,447.999,249.894,447.999,252.004z"/>
</symbol>


    <!-- Bread: a loaf with a crust line -->
    <symbol id="i-bread" viewBox="0 0 64 64" aria-label="bread">
  <path d="M44.1 29.5l15.7-7.2c.1-.2.4-.7.6-1c.7-1.1 1.6-2.4 1.6-4C62 10.3 52.7 4 40.4 4s-25 5.3-32.3 10.4c-1.1.8 36 15.1 36 15.1" fill="#995024"/>
  <path d="M60.6 30.1c-.8-5.4-.9-7.3-.9-7.9L44 29.4l-6.6 30.5c4.6 0 20.5-9.8 22.3-12.4c2.2-3 2.4-5.9 1-16.5c0-.2 0-.5-.1-.9" fill="#b3682a"/>
  <path d="M42.3 29c.2-1.3 2.2-3 2.2-4.5c0-5.6-9.1-13.2-20.4-13.2S3.8 18.8 3.8 24.4c0 1.6 2 3.3 2.2 4.5c.3 1.5-.8 8.1-1 9.6c-2.3 17-.2 19.3 7.8 19.3c2.9 0 6.7-.3 11.3-.3s8.4.3 11.3.3c8 0 10.2-2.3 7.8-19.3c-.1-1.5-1.1-8-.9-9.5" fill="#fff3e3"/>
  <path d="M3.8 24.4c0-5.6 9.1-13.2 20.4-13.2s20.4 7.6 20.4 13.2c0 1.6-2 3.3-2.2 4.5l1.8.5c.1-.2.4-.7.6-1c.7-1.1 1.6-2.4 1.6-4c0-7-9.9-15.4-22.2-15.4C11.9 9 2 17.5 2 24.4c0 1.6.9 2.9 1.6 4c.2.3.5.8.6 1L6 29c-.2-1.3-2.2-3-2.2-4.6" fill="#c0773b"/>
  <path d="M45 37.3c-.8-5.4-.9-7.3-.9-7.9l-1.8-.4c-.3 1.5.8 8.1 1 9.6c2.3 17 .2 19.3-7.8 19.3c-2.9 0-6.7-.3-11.3-.3s-8.4.3-11.3.3c-8 0-10.2-2.3-7.8-19.3c.1-1.6 1.1-8.1.9-9.6l-1.8.5c0 .5-.1 2.4-.9 7.9c-.1.4-.1.7-.1.9c-1.4 10.5-1.2 15.6 1 18.6C6 59.5 9 60 12.9 60c1.3 0 2.9-.1 4.5-.1c2-.1 4.3-.2 6.8-.2s4.8.1 6.8.2c1.6.1 3.1.1 4.5.1c3.9 0 6.8-.5 8.7-3.1c2.1-3 2.4-8.1 1-18.7c-.1-.2-.2-.5-.2-.9" fill="#cb8d44"/>
  <g fill="#ede0d1">
    <circle cx="9.3" cy="49" r="1.8"/>
    <circle cx="11.8" cy="43.9" r="1.5"/>
    <circle cx="14.8" cy="47.2" r=".9"/>
    <circle cx="28.9" cy="27.1" r="2.4"/>
    <circle cx="32.4" cy="30.2" r=".7"/>
    <circle cx="35.1" cy="32.4" r="1"/>
    <circle cx="30.4" cy="32.4" r="1.5"/>
    <circle cx="35.6" cy="48.2" r="1.8"/>
    <circle cx="31.9" cy="48.6" r="1"/>
    <circle cx="11" cy="24.7" r="1"/>
    <circle cx="11" cy="20.8" r="1.5"/>
    <circle cx="13.9" cy="23.7" r="1"/>
  </g>
</symbol>


    <!-- Crackers: four crackers in a pack -->
    <symbol id="i-crackers" viewBox="0 0 24 24" aria-label="crackers">
      <g class="s" fill="none">
        <!-- pack -->
        <rect x="5" y="5" width="14" height="14" rx="2" fill="#FFE082"/>
        <!-- holes -->
        <circle cx="9" cy="9" r="0.7" fill="#F9A825" stroke="none"/>
        <circle cx="15" cy="9" r="0.7" fill="#F9A825" stroke="none"/>
        <circle cx="9" cy="15" r="0.7" fill="#F9A825" stroke="none"/>
        <circle cx="15" cy="15" r="0.7" fill="#F9A825" stroke="none"/>
      </g>
    </symbol>

    <!-- Pasta sauce: jar of red sauce with green lid and label -->
    <symbol id="i-pasta-sauce" viewBox="0 0 24 24" aria-label="pasta sauce">
      <g class="s" fill="none">
        <!-- jar body -->
        <rect x="7" y="5" width="10" height="15" rx="2" fill="#E57373"/>
        <!-- lid -->
        <rect x="7" y="5" width="10" height="3" fill="#81C784"/>
        <!-- label -->
        <circle cx="12" cy="13" r="2.2" fill="#F0625D" stroke="none"/>
      </g>
    </symbol>

    <!-- Chips: packet of crisps with chips peeking out -->
    <symbol id="i-chips" viewBox="0 0 24 24" aria-label="chips">
      <g class="s" fill="none">
        <!-- bag -->
        <path d="M8 5 H16 L18 19 H6 Z" fill="#FFEB3B"/>
        <!-- top fold -->
        <path d="M8 5 L9 9 H15 L16 5 Z" fill="#FBC02D"/>
        <!-- chips inside -->
        <circle cx="12" cy="12" r="1.5" fill="#FFE082" stroke="none"/>
        <circle cx="14" cy="14" r="1" fill="#FFE082" stroke="none"/>
      </g>
    </symbol>

    <!-- ========== MEAT / PROTEIN / OTHER ITEMS ========== -->

    <!-- Chicken: tray with two chicken breasts -->
    <symbol id="i-chicken" viewBox="0 0 24 24" aria-label="chicken">
      <g class="s" fill="none">
        <!-- tray -->
        <rect x="3" y="5" width="18" height="14" rx="2" fill="#C8E6C9"/>
        <!-- left breast -->
        <path d="M7 10 C9.5 8 12 9 12 12 C12 15 9.5 16.5 7 15 C5 13.5 5.5 11 7 10 Z" fill="#F8C9B7"/>
        <!-- right breast -->
        <path d="M12 10 C14.5 8 17 9 17 12 C17 15 14.5 16.5 12 15 C10 13.5 10.5 11 12 10 Z" fill="#F6BDAA"/>
      </g>
    </symbol>

    <!-- Beef: steak with a bone and marbling -->
    <symbol id="i-beef" viewBox="0 0 128 128" aria-label="beef">
  <g class="s" fill="none">
    <path d="M121.03 21.75L4.47 62.94s-.43 9.23.57 16.89s2.41 11.78 2.41 11.78s3.83 17.46 26.12 26.12s45.1-1.17 51.96-4.97c8.24-4.56 19-15.08 23.26-20.33c4.26-5.25 12.52-17.14 13.51-24.81c.99-7.67 2.03-19.79 1.99-27.46c-.07-11.36-3.26-18.41-3.26-18.41z" fill="#fea8a6"/>
    <path d="M64.09 29.72c-6.67 1.56-27.97 3.97-33.08 5.39c-5.11 1.42-12.15 4.18-14.35 5.92c-3.6 2.85-12.25 17.36-12.2 21.91c.08 7.91 3.02 17.68 5.58 20.04c1.86 1.72 16.29 22.54 35.88 22.68c19.59.14 62.75-29.39 64.59-31.94c1.85-2.56 8.25-14.8 10.03-22.53c1.57-6.83 3.56-21.51.19-30.42c-2.59-6.86-8.71-13.19-12.88-14.02c-8.25-1.63-12.95-.03-14.23.4c-1.28.43-3.47 13.74-8.94 15.76c-8.09 2.98-20.59 6.81-20.59 6.81z" fill="#fed5b6"/>
    <path d="M89.19 22.6c5.82-3.44 6.43-15.97 6.43-15.97s-4.46.29-9.43 4.32s-10.71 11.22-13.54 13.28c-2.83 2.06-8.56 5.49-8.56 5.49s16.13-1.83 25.1-7.12z" fill="#dc0d28"/>
    <path d="M95.96 37.25c3.07 9.44 14.22 12.42 17.39 11.57c3.17-.86 5.14-7.8 4.88-17.91s-5.4-15.77-10.2-15.42c-4.11.29-9.86 4.31-12 10.45a17.902 17.902 0 0 0-.07 11.31z" fill="#dc0d28"/>
    <path d="M77.19 34.94c1.33 1.33-2.31 5.23-.26 11.31c2.06 6.08 5.48 7.8 5.23 9.6s-14.48 19.79-24.5 23.56s-37.83 2.51-42.93-11.65c-3.86-10.71 4.29-19.95 6.43-21.68c3.25-2.63 6.47-4.64 11.4-5.57c1.88-.35 15.94-2.48 24.25-3.34c8.3-.86 18.84-3.77 20.38-2.23z" fill="#dc0d28"/>
    <path d="M53.54 42.22c.7 3.25-8.83 6.43-16.19 11.82c-5.45 3.99-9.6 11.31-14.31 8.4s1.93-14.16 4.46-16.11c2.99-2.31 25.27-7.71 26.04-4.11z" fill="#ff5f5d"/>
    <path d="M79.48 22.78c.72 1.6 6-2.31 8.57-4.46c2.08-1.73 4.6-3.3 3.26-5.4c-1.54-2.4-4.28-.34-6.94 2.48c-1.74 1.85-5.67 5.67-4.89 7.38z" fill="#ff5f5d"/>
    <path d="M40.09 89.69c3.98 1.26 2.59 15.21 5.57 15.08c3.45-.14.93-11.84 4.1-14.66c3.17-2.83 7.16-2.37 12.9-5.2s12.05-8.15 16.5-13.38c4.46-5.23 9.43-11.14 11.74-12.94c2.31-1.8 14.4-5.4 18.59-2.48c4.2 2.91 2.66 15.25 2.66 15.25s-8.18 14.66-24.63 24.39s-25.81 13.59-45.83 11.3S9.66 82.58 9.66 82.58s7.72 3.29 16.45 4.72s10.02 1.14 13.98 2.39z" fill="#dc0d28"/>
    <path d="M87.58 29.47c-4.94 3-9.34 8.6-7.1 16.11s13.86 12.07 21.51 4.75c6.78-6.48 5.18-14.04 2.07-17.71c-3.09-3.66-10.04-7.06-16.48-3.15z" fill="#ffffff"/>
    <path d="M97.94 32.83c-5.24-2.66-10.61.38-12.28 3.79c-1.66 3.41-1.45 8.2 2.51 11.04c4.24 3.05 10.75 1.52 13.02-3.15s.91-9.57-3.25-11.68z" fill="#ffa8a7"/>
  </g>
</symbol>


    <!-- Hummus: bowl of dip with a swirl -->
    <symbol id="i-hummus" viewBox="0 0 24 24" aria-label="hummus">
      <g class="s" fill="none">
        <!-- bowl rim -->
        <ellipse cx="12" cy="9" rx="8" ry="3" fill="#FCE0B2"/>
        <!-- bowl body -->
        <rect x="4" y="9" width="16" height="7" rx="2" fill="#F5C87A"/>
        <!-- bowl base -->
        <ellipse cx="12" cy="16" rx="8" ry="3" fill="#E6B96B"/>
        <!-- swirl of hummus -->
        <path d="M9 12 C10 11 11 11 12 12 C13 13 14 13 15 12" stroke="#D29F4A"/>
        <!-- olive garnish -->
        <circle cx="12" cy="13" r="0.8" fill="#A9835A" stroke="none"/>
      </g>
    </symbol>

    <!-- Rice: bag with green top and grains pattern -->
    <symbol id="i-rice" viewBox="0 0 24 24" aria-label="rice">
      <g class="s" fill="none">
        <!-- bag body -->
        <rect x="6" y="4" width="12" height="16" rx="2" fill="#E8F5E9"/>
        <!-- top band -->
        <rect x="6" y="4" width="12" height="3" fill="#81C784"/>
        <!-- grains pattern -->
        <path d="M9 12 l1 1 M12 13 l1 1 M15 12 l1 1" stroke="#B0D5B4"/>
        <path d="M9 15 l1 1 M12 16 l1 1 M15 15 l1 1" stroke="#B0D5B4"/>
      </g>
    </symbol>

    <!-- Pasta: box with window showing noodles -->
    <symbol id="i-pasta" viewBox="0 0 24 24" aria-label="pasta">
      <g class="s" fill="none">
        <!-- box -->
        <rect x="6" y="5" width="12" height="14" rx="2" fill="#90CAF9"/>
        <!-- window -->
        <rect x="8" y="9" width="8" height="6" fill="#FFE082"/>
        <!-- noodles lines -->
        <path d="M8 9 H16 M8 12 H16 M8 15 H16" stroke="#FBC02D"/>
      </g>
    </symbol>

    <!-- Honey: squeeze bottle with cap and stripes -->
    <symbol id="i-honey" viewBox="0 0 24 24" aria-label="honey">
      <g class="s" fill="none">
        <!-- bottle body -->
        <rect x="8" y="6" width="8" height="14" rx="3" fill="#FFC107"/>
        <!-- cap -->
        <rect x="9.5" y="3" width="5" height="3" rx="1" fill="#FBC02D"/>
        <!-- stripes -->
        <path d="M10 11 H14 M10 14 H14 M10 17 H14" stroke="#FFEB3B"/>
      </g>
    </symbol>

    <!-- Bagel: round bread with a hole and seeds -->
    <symbol id="i-bagel" viewBox="0 0 24 24" aria-label="bagel">
      <g class="s" fill="none">
        <!-- outer ring -->
        <circle cx="12" cy="12" r="7" fill="#F4C27A"/>
        <!-- inner hole -->
        <circle cx="12" cy="12" r="2.3" fill="#F8E7C3" stroke="none"/>
        <!-- seeds -->
        <circle cx="9.5" cy="10" r="0.4" fill="#D39B54" stroke="none"/>
        <circle cx="14.2" cy="13" r="0.4" fill="#D39B54" stroke="none"/>
        <circle cx="11" cy="15" r="0.4" fill="#D39B54" stroke="none"/>
      </g>
    </symbol>

    <!-- Wrap/Tortilla: round flatbread with fold line -->
    <symbol id="i-wrap" viewBox="0 0 24 24" aria-label="wrap">
      <g class="s" fill="none">
        <circle cx="12" cy="12" r="7.5" fill="#F5E0B8"/>
        <!-- fold line -->
        <path d="M6 12 H18" stroke="#E8C98E"/>
      </g>
    </symbol>

    <!-- Oats: cylindrical canister with oat flecks -->
    <symbol id="i-oats" viewBox="0 0 24 24" aria-label="oats">
      <g class="s" fill="none">
        <!-- canister body -->
        <rect x="7" y="4" width="10" height="16" rx="2" fill="#D7CCC8"/>
        <!-- lid -->
        <rect x="7" y="4" width="10" height="3" fill="#8D6E63"/>
        <!-- oat flecks -->
        <path d="M9.5 12 l0.8 0.8 M12 12.5 l0.8 0.8 M10.5 14.5 l0.8 0.8" stroke="#BCAAA4"/>
        <path d="M13 14 l0.8 0.8" stroke="#BCAAA4"/>
      </g>
    </symbol>

    <!-- Butter: stick in a wrapper -->
    <symbol id="i-butter" viewBox="0 0 24 24" aria-label="butter">
      <g class="s" fill="none">
        <!-- inner stick -->
        <rect x="5" y="11" width="14" height="6" rx="1.5" fill="#FFEB3B"/>
        <!-- wrapper -->
        <rect x="4" y="9" width="16" height="10" rx="2" fill="#FFF9C4"/>
      </g>
    </symbol>

    <!-- Ice cream: tub with two scoops -->
    <symbol id="i-ice_cream" viewBox="0 0 24 24" aria-label="ice cream">
      <g class="s" fill="none">
        <!-- tub -->
        <rect x="6" y="11" width="12" height="8" rx="2" fill="#B39DDB"/>
        <!-- scoops -->
        <path d="M6 11 H18 C17 8 14.5 6.5 12 6.5 C9.5 6.5 7 8 6 11 Z" fill="#F8BBD0"/>
        <!-- sprinkles -->
        <circle cx="10" cy="9.5" r="0.4" fill="#FFCDD2" stroke="none"/>
        <circle cx="12" cy="8.5" r="0.4" fill="#FFCDD2" stroke="none"/>
        <circle cx="14" cy="9.5" r="0.4" fill="#FFCDD2" stroke="none"/>
      </g>
    </symbol>

    <!-- Cereal: box with a bowl of cereal on the front -->
    <symbol id="i-cereal" viewBox="0 0 24 24" aria-label="cereal">
      <g class="s" fill="none">
        <!-- box -->
        <rect x="6" y="4" width="12" height="16" rx="2" fill="#FFCC80"/>
        <!-- bowl -->
        <ellipse cx="12" cy="14" rx="4" ry="2" fill="#FFE082"/>
        <!-- cereal pieces -->
        <circle cx="11" cy="13.5" r="0.5" fill="#F57F17" stroke="none"/>
        <circle cx="13" cy="14.5" r="0.5" fill="#F57F17" stroke="none"/>
        <circle cx="12" cy="12.5" r="0.5" fill="#F57F17" stroke="none"/>
      </g>
    </symbol>

    <!-- Peanut butter jar (underscore id) -->
    <symbol id="i-peanut_butter" viewBox="0 0 24 24" aria-label="peanut butter">
      <g class="s" fill="none">
        <!-- jar body -->
        <rect x="7" y="6" width="10" height="13" rx="2" fill="#C68642"/>
        <!-- lid -->
        <rect x="7" y="6" width="10" height="3" fill="#D95F02"/>
        <!-- peanut emblem -->
        <ellipse cx="12" cy="13" rx="2.5" ry="1.7" fill="#E0A46A"/>
        <path d="M12 12.1 C11 12.1 10.5 13 11 13.9 C10.5 14.5 11 15.7 12 15.7 C13 15.7 13.5 14.5 13 13.9 C13.5 13 13 12.1 12 12.1 Z" fill="#D39B54"/>
      </g>
    </symbol>

    <!-- Cracker (single square) -->
    <symbol id="i-cracker" viewBox="0 0 24 24" aria-label="cracker">
      <g class "s" fill="none">
        <rect x="5" y="5" width="14" height="14" rx="2" fill="#FFE082"/>
        <circle cx="9" cy="9" r="0.7" fill="#F9A825" stroke="none"/>
        <circle cx="15" cy="9" r="0.7" fill="#F9A825" stroke="none"/>
        <circle cx="9" cy="15" r="0.7" fill="#F9A825" stroke="none"/>
        <circle cx="15" cy="15" r="0.7" fill="#F9A825" stroke="none"/>
      </g>
    </symbol>

    <!-- Pasta sauce jar (underscore id) -->
    <symbol id="i-pasta_sauce" viewBox="0 0 24 24" aria-label="pasta sauce">
      <g class="s" fill="none">
        <!-- jar body -->
        <rect x="7" y="5" width="10" height="15" rx="2" fill="#E57373"/>
        <!-- lid -->
        <rect x="7" y="5" width="10" height="3" fill="#81C784"/>
        <!-- label circle -->
        <circle cx="12" cy="13" r="2.2" fill="#F0625D" stroke="none"/>
      </g>
    </symbol>

    <!-- Egg alias: reuse eggs icon -->
    <symbol id="i-egg" viewBox="0 0 24 24" aria-label="egg">
      <use href="#i-eggs"></use>
    </symbol>

    <!-- Cracker alias to plural version -->
    <symbol id="i-cracker_compat" viewBox="0 0 24 24" aria-label="cracker">
      <use href="#i-crackers"></use>
    </symbol>

    <!-- Peanut butter alias (compatibility with dash version) -->
    <symbol id="i-peanut_butter_compat" viewBox="0 0 24 24" aria-label="peanut butter">
      <use href="#i-peanut-butter"></use>
    </symbol>

    <!-- Pasta sauce alias (compatibility with dash version) -->
    <symbol id="i-pasta_sauce_compat" viewBox="0 0 24 24" aria-label="pasta sauce">
      <use href="#i-pasta-sauce"></use>
    </symbol>

    <!-- Toilet paper: a roll of toilet paper (unchanged) -->
    <symbol id="i-toilet_paper" viewBox="0 0 24 24" aria-label="toilet paper">
      <circle cx="7" cy="7" r="2" fill="none" stroke="currentColor" stroke-width="2"/>
      <path d="M3 3h14a4 4 0 0 1 4 4v10a4 4 0 0 1-4 4H3z" fill="none" stroke="currentColor" stroke-width="2"/>
      <path d="M17 3v18" stroke="currentColor" stroke-width="2"/>
    </symbol>
  </defs>
</svg>
